<?xml version="1.0" encoding="UTF-8"?>
<!DOCTYPE svg PUBLIC "-//W3C//DTD SVG 1.1//EN" "http://www.w3.org/Graphics/SVG/1.1/DTD/svg11.dtd">
<svg xmlns="http://www.w3.org/2000/svg" version="1.1" width="225px" height="225px" style="shape-rendering:geometricPrecision; text-rendering:geometricPrecision; image-rendering:optimizeQuality; fill-rule:evenodd; clip-rule:evenodd" xmlns:xlink="http://www.w3.org/1999/xlink">
<g><path style="opacity:1" fill="#a2beb2" d="M 131.5,13.5 C 130.551,14.1524 129.385,14.4857 128,14.5C 108.619,11.3679 89.7856,13.3679 71.5,20.5C 74.1879,18.7337 77.0212,17.067 80,15.5C 80.3333,15.8333 80.6667,16.1667 81,16.5C 97.5356,11.1211 114.369,10.1211 131.5,13.5 Z"/></g>
<g><path style="opacity:1" fill="#f0f2f1" d="M 131.5,13.5 C 132.492,13.3284 133.158,13.6618 133.5,14.5C 132.099,14.9709 130.766,15.6376 129.5,16.5C 129.709,17.086 130.043,17.586 130.5,18C 127.681,17.5078 125.014,17.6744 122.5,18.5C 121.414,18.62 120.747,19.2867 120.5,20.5C 121.46,22.4771 122.46,24.4771 123.5,26.5C 122.092,27.2432 120.759,28.0766 119.5,29C 122.039,29.7958 124.372,29.6291 126.5,28.5C 127.778,28.7822 128.778,29.4489 129.5,30.5C 131.583,32.6044 133.917,32.9377 136.5,31.5C 138.075,33.1137 138.741,35.1137 138.5,37.5C 140.415,37.7845 142.081,37.4511 143.5,36.5C 144.5,36.5 145.5,36.5 146.5,36.5C 146.44,40.4851 148.44,42.1518 152.5,41.5C 152.367,44.925 153.033,45.2583 154.5,42.5C 156.687,39.2609 158.687,35.9275 160.5,32.5C 162.166,31.3336 163.833,31.3336 165.5,32.5C 164.833,33.1667 164.167,33.8333 163.5,34.5C 163.833,34.8333 164.167,35.1667 164.5,35.5C 166.101,34.8346 167.601,34.5012 169,34.5C 169.47,35.5768 169.303,36.5768 168.5,37.5C 163.379,36.3929 160.046,38.5596 158.5,44C 158.833,44.5 159.167,45 159.5,45.5C 160.84,44.1335 162.173,42.8001 163.5,41.5C 163.539,42.5832 163.873,43.5832 164.5,44.5C 162.34,46.0935 162.173,47.7601 164,49.5C 166.929,46.3096 168.762,42.6429 169.5,38.5C 171.341,38.1567 172.841,38.1567 174,38.5C 174.813,40.4357 175.313,42.4357 175.5,44.5C 172.041,45.436 169.207,47.436 167,50.5C 166.437,51.7248 166.77,52.7248 168,53.5C 169.685,51.9825 171.185,50.3159 172.5,48.5C 173.609,47.4104 174.609,47.4104 175.5,48.5C 174.675,49.3857 173.675,49.719 172.5,49.5C 172.753,51.8273 172.086,53.8273 170.5,55.5C 170.855,56.5223 171.522,57.189 172.5,57.5C 173.397,58.5981 174.23,58.5981 175,57.5C 175.464,58.0944 175.631,58.7611 175.5,59.5C 174.147,60.8671 174.481,61.8671 176.5,62.5C 178.5,60.8333 180.5,59.1667 182.5,57.5C 183.417,58.1272 184.417,58.4606 185.5,58.5C 186.735,58.2786 187.735,57.6119 188.5,56.5C 191.196,57.74 193.529,59.4066 195.5,61.5C 198.207,64.2466 199.873,67.5799 200.5,71.5C 199.883,71.3893 199.383,71.056 199,70.5C 198.097,71.7014 196.931,72.5348 195.5,73C 196.624,73.8388 197.291,75.0055 197.5,76.5C 196.638,79.256 196.305,81.9226 196.5,84.5C 192.944,84.2776 190.277,85.6109 188.5,88.5C 187.542,88.9528 186.708,89.6195 186,90.5C 185.623,89.0577 184.79,88.0577 183.5,87.5C 184.329,85.0665 183.829,82.7332 182,80.5C 179.863,79.5214 178.029,78.1881 176.5,76.5C 177.833,75.3801 178.333,74.0468 178,72.5C 176.817,73.731 175.651,73.731 174.5,72.5C 172.275,68.6617 169.608,65.3283 166.5,62.5C 164.188,58.1881 160.855,54.8548 156.5,52.5C 154.752,51.2106 154.419,49.7106 155.5,48C 149.638,46.287 143.971,44.1203 138.5,41.5C 138.279,40.2652 137.612,39.2652 136.5,38.5C 132.965,37.9779 129.632,36.9779 126.5,35.5C 124.591,36.3482 122.591,36.6816 120.5,36.5C 120.167,36.5 119.833,36.5 119.5,36.5C 119.804,35.8501 120.137,35.1835 120.5,34.5C 119,34.1667 117.5,33.8333 116,33.5C 106.553,34.9125 97.053,35.9125 87.5,36.5C 87.1667,37.1667 86.8333,37.8333 86.5,38.5C 80.9105,40.3079 75.2438,41.8079 69.5,43C 69.3842,44.2682 69.0509,45.6015 68.5,47C 66.8659,47.4935 65.1992,47.6602 63.5,47.5C 63.4828,49.5648 63.1495,51.5648 62.5,53.5C 60.0381,56.4639 57.3714,59.2972 54.5,62C 53.5509,62.6172 52.7175,62.4506 52,61.5C 51.5439,62.7441 52.0439,63.5774 53.5,64C 52.3333,65.1667 51.1667,66.3333 50,67.5C 49.7811,66.062 49.2811,64.7287 48.5,63.5C 47.8929,67.8466 45.8929,71.3466 42.5,74C 43.8333,74 45.1667,74 46.5,74C 44.4672,76.8959 43.1338,80.0626 42.5,83.5C 39.7709,88.7294 38.1042,94.3961 37.5,100.5C 37.5195,101.726 37.8529,102.726 38.5,103.5C 38.5,105.5 38.5,107.5 38.5,109.5C 37.71,108.391 37.21,107.058 37,105.5C 36.5956,113.174 36.7622,120.841 37.5,128.5C 37.5,129.167 37.5,129.833 37.5,130.5C 36.8688,132.448 35.8688,134.281 34.5,136C 34.6191,137.145 34.9524,138.312 35.5,139.5C 33.8561,139.286 32.3561,139.62 31,140.5C 31.3632,138.027 32.0299,135.693 33,133.5C 29.9953,135.002 26.8286,136.002 23.5,136.5C 23.5,137.5 23.5,138.5 23.5,139.5C 22.7321,137.285 22.0654,134.952 21.5,132.5C 25.1625,131.734 28.8292,130.9 32.5,130C 31.8742,129.25 31.3742,128.416 31,127.5C 29.9887,128.337 28.8221,128.67 27.5,128.5C 27.5,127.5 27.5,126.5 27.5,125.5C 28.8333,125.5 30.1667,125.5 31.5,125.5C 31.5,124.5 31.5,123.5 31.5,122.5C 28.7938,122.575 26.1272,122.908 23.5,123.5C 24.6002,122.442 25.9336,121.608 27.5,121C 25.3885,120.155 23.3885,119.322 21.5,118.5C 33.5,117.833 33.5,117.167 21.5,116.5C 21.5,115.5 21.5,114.5 21.5,113.5C 23.143,113.48 24.4763,114.147 25.5,115.5C 26.8415,113.995 28.5082,113.328 30.5,113.5C 30.5,112.5 30.5,111.5 30.5,110.5C 27.4816,110.335 24.4816,110.502 21.5,111C 19.2854,113.242 18.9521,115.742 20.5,118.5C 16.9167,117.578 15.2501,115.244 15.5,111.5C 15.1967,108.156 16.5301,105.822 19.5,104.5C 19.281,105.675 19.6143,106.675 20.5,107.5C 21.4682,106.511 22.6349,105.844 24,105.5C 26.137,106.077 28.3037,106.41 30.5,106.5C 30.5,105.5 30.5,104.5 30.5,103.5C 26.5099,103.501 22.8432,102.501 19.5,100.5C 20.9002,99.8999 21.9002,98.8999 22.5,97.5C 25.5274,98.5089 28.5274,98.5089 31.5,97.5C 29.4527,95.9848 27.1193,95.1515 24.5,95C 23.7636,91.8012 24.5969,91.6345 27,94.5C 28.6995,93.5939 30.5328,93.2606 32.5,93.5C 32.5,92.5 32.5,91.5 32.5,90.5C 28.7332,89.9112 25.0665,89.9112 21.5,90.5C 21.3505,89.448 21.5172,88.448 22,87.5C 22.3333,87.8333 22.6667,88.1667 23,88.5C 23.6082,86.9336 24.4415,85.6002 25.5,84.5C 27.8862,85.2981 30.2195,86.2981 32.5,87.5C 33.5,87.1667 34.1667,86.5 34.5,85.5C 31.8216,84.4452 29.3216,83.1118 27,81.5C 26.8119,79.9387 27.6453,79.272 29.5,79.5C 29.281,80.675 29.6143,81.675 30.5,82.5C 32.0421,81.2532 33.5421,81.2532 35,82.5C 35.6667,81.5 35.6667,80.5 35,79.5C 32.3103,78.0708 29.4769,77.0708 26.5,76.5C 26.5774,75.2502 27.244,74.4169 28.5,74C 26.0635,72.404 25.5635,70.5707 27,68.5C 27.3333,69.1667 27.6667,69.8333 28,70.5C 28.2321,69.2625 28.7321,68.2625 29.5,67.5C 29.3398,69.1992 29.5065,70.8659 30,72.5C 32.0344,74.0316 34.2011,75.3649 36.5,76.5C 37.3081,76.1924 37.9747,75.6924 38.5,75C 35.7644,73.6378 33.4311,71.8044 31.5,69.5C 32.325,68.6143 33.325,68.281 34.5,68.5C 34.281,69.675 34.6143,70.675 35.5,71.5C 36.6358,66.3091 34.6358,64.6424 29.5,66.5C 29.281,65.325 29.6143,64.325 30.5,63.5C 31.6086,64.5896 32.6086,64.5896 33.5,63.5C 34.0505,61.3432 34.7171,59.3432 35.5,57.5C 35.3398,59.1992 35.5065,60.8659 36,62.5C 38.292,63.7899 40.292,65.4565 42,67.5C 43.2295,66.7248 43.5628,65.7248 43,64.5C 40.6921,63.3589 38.8587,61.6922 37.5,59.5C 39.5743,57.1723 40.5743,57.8389 40.5,61.5C 42.0603,61.5191 43.5603,61.8524 45,62.5C 46.2575,62.1501 46.5908,61.4835 46,60.5C 43.8307,56.8095 40.664,55.1429 36.5,55.5C 35.3424,54.0502 35.8424,53.0502 38,52.5C 38.3095,51.2341 38.8095,50.0674 39.5,49C 39.1667,48.6667 38.8333,48.3333 38.5,48C 39.7932,47.51 41.1266,47.3433 42.5,47.5C 42.4894,49.0174 41.8228,50.1841 40.5,51C 41.3247,52.6883 42.3247,52.8549 43.5,51.5C 45.2219,54.4196 47.5553,56.253 50.5,57C 50.8333,56.6667 51.1667,56.3333 51.5,56C 49.316,53.9835 47.316,51.8169 45.5,49.5C 46.8069,48.135 46.8069,46.8016 45.5,45.5C 46.3029,44.5768 46.4696,43.5768 46,42.5C 45.3333,43.8333 44.6667,43.8333 44,42.5C 43.6411,45.5443 42.9745,45.8776 42,43.5C 40.9887,44.3366 39.8221,44.67 38.5,44.5C 41.1156,41.5454 43.7823,38.5454 46.5,35.5C 49.0127,32.7454 52.0127,30.7454 55.5,29.5C 60.8412,26.4965 66.1745,23.4965 71.5,20.5C 89.7856,13.3679 108.619,11.3679 128,14.5C 129.385,14.4857 130.551,14.1524 131.5,13.5 Z"/></g>
<g><path style="opacity:0.016" fill="#ddebe3" d="M 150.5,18.5 C 151.833,19.1667 151.833,19.1667 150.5,18.5 Z"/></g>
<g><path style="opacity:1" fill="#080808" d="M 110.5,17.5 C 111.787,18.8714 112.453,20.7047 112.5,23C 112.453,25.2953 111.787,27.1286 110.5,28.5C 110.5,24.8333 110.5,21.1667 110.5,17.5 Z"/></g>
<g><path style="opacity:1" fill="#1d1d1d" d="M 122.5,18.5 C 127.11,18.5959 127.444,19.5959 123.5,21.5C 125.854,23.2461 126.854,25.5794 126.5,28.5C 124.372,29.6291 122.039,29.7958 119.5,29C 120.759,28.0766 122.092,27.2432 123.5,26.5C 122.46,24.4771 121.46,22.4771 120.5,20.5C 120.747,19.2867 121.414,18.62 122.5,18.5 Z"/></g>
<g><path style="opacity:0.016" fill="#ddfff3" d="M 158.5,22.5 C 159.833,23.1667 159.833,23.1667 158.5,22.5 Z"/></g>
<g><path style="opacity:1" fill="#929292" d="M 110.5,17.5 C 111.209,16.596 112.209,16.2627 113.5,16.5C 113.5,20.8333 113.5,25.1667 113.5,29.5C 112.209,29.7373 111.209,29.404 110.5,28.5C 111.787,27.1286 112.453,25.2953 112.5,23C 112.453,20.7047 111.787,18.8714 110.5,17.5 Z"/></g>
<g><path style="opacity:1" fill="#1d1d1d" d="M 93.5,18.5 C 95.4672,18.2606 97.3005,18.5939 99,19.5C 99.4552,22.8536 99.9552,26.1869 100.5,29.5C 99.5,29.5 98.5,29.5 97.5,29.5C 96.0724,26.5162 95.4057,23.5162 95.5,20.5C 94.4473,23.8151 94.4473,27.1485 95.5,30.5C 94.5,30.5 93.5,30.5 92.5,30.5C 92.6813,27.6029 92.3479,24.7695 91.5,22C 91.9783,20.6974 92.645,19.5307 93.5,18.5 Z"/></g>
<g><path style="opacity:0.016" fill="#dce3e0" d="M 54.5,26.5 C 55.8333,27.1667 55.8333,27.1667 54.5,26.5 Z"/></g>
<g><path style="opacity:0.608" fill="#a0b3ac" d="M 71.5,20.5 C 66.1745,23.4965 60.8412,26.4965 55.5,29.5C 59.7885,24.7569 65.1219,21.7569 71.5,20.5 Z"/></g>
<g><path style="opacity:1" fill="#222222" d="M 104.5,17.5 C 105.5,17.5 106.5,17.5 107.5,17.5C 107.665,20.8499 107.498,24.1832 107,27.5C 105.373,29.312 103.873,29.4787 102.5,28C 104.227,24.7242 104.894,21.2242 104.5,17.5 Z"/></g>
<g><path style="opacity:0.051" fill="#d9e9e3" d="M 165.5,26.5 C 166.833,27.1667 166.833,27.1667 165.5,26.5 Z"/></g>
<g><path style="opacity:1" fill="#1c1b19" d="M 76.5,23.5 C 79.1547,27.1227 80.1547,31.1227 79.5,35.5C 76.8082,31.7882 75.8082,27.7882 76.5,23.5 Z"/></g>
<g><path style="opacity:1" fill="#292929" d="M 86.5,19.5 C 88.4302,23.3727 89.0969,27.706 88.5,32.5C 86.8561,32.7135 85.3561,32.3802 84,31.5C 82.6274,28.5875 81.1274,25.7542 79.5,23C 80.0253,22.3076 80.6919,21.8076 81.5,21.5C 82.919,23.3359 84.0857,25.3359 85,27.5C 85.2724,24.7462 85.7724,22.0795 86.5,19.5 Z"/></g>
<g><path style="opacity:1" fill="#1e1d1d" d="M 136.5,31.5 C 133.917,32.9377 131.583,32.6044 129.5,30.5C 129.416,26.4974 130.416,22.8307 132.5,19.5C 132.486,22.7678 132.819,26.1012 133.5,29.5C 135.113,27.5395 136.113,25.2061 136.5,22.5C 136.833,22.1667 137.167,21.8333 137.5,21.5C 137.833,22.1667 138.167,22.8333 138.5,23.5C 137.829,26.1849 137.162,28.8516 136.5,31.5 Z"/></g>
<g><path style="opacity:0.016" fill="#ddfcf1" d="M 174.5,32.5 C 175.833,33.1667 175.833,33.1667 174.5,32.5 Z"/></g>
<g><path style="opacity:1" fill="#252222" d="M 69.5,26.5 C 70.4959,26.4142 71.3292,26.7476 72,27.5C 73.1667,30.3333 74.3333,33.1667 75.5,36C 74.3342,39.2793 73.3342,39.1126 72.5,35.5C 71.5,34.1667 70.5,34.1667 69.5,35.5C 70.0402,36.7481 70.7069,37.9148 71.5,39C 70.9747,39.6924 70.3081,40.1924 69.5,40.5C 67.6935,37.0541 66.0268,33.5541 64.5,30C 65.0253,29.3076 65.6919,28.8076 66.5,28.5C 67.2432,29.9079 68.0766,31.2412 69,32.5C 69.6924,31.9747 70.1924,31.3081 70.5,30.5C 69.7542,29.2638 69.4208,27.9305 69.5,26.5 Z"/></g>
<g><path style="opacity:0.016" fill="#dde9e4" d="M 46.5,35.5 C 45.8333,34.1667 45.8333,34.1667 46.5,35.5 Z"/></g>
<g><path style="opacity:0.031" fill="#dbebe5" d="M 177.5,35.5 C 178.833,36.1667 178.833,36.1667 177.5,35.5 Z"/></g>
<g><path style="opacity:1" fill="#252223" d="M 59.5,32.5 C 62.0182,33.5109 62.0182,34.8443 59.5,36.5C 61.1083,37.3184 62.7749,37.9851 64.5,38.5C 66.2121,41.7968 65.3788,44.1301 62,45.5C 61.5,45.1667 61,44.8333 60.5,44.5C 63.4167,41.7324 62.75,40.2324 58.5,40C 57.4258,39.2613 56.7591,38.2613 56.5,37C 57.3146,35.3566 58.3146,33.8566 59.5,32.5 Z"/></g>
<g><path style="opacity:1" fill="#231f20" d="M 168.5,37.5 C 168.5,38.1667 168.833,38.5 169.5,38.5C 168.762,42.6429 166.929,46.3096 164,49.5C 162.173,47.7601 162.34,46.0935 164.5,44.5C 163.873,43.5832 163.539,42.5832 163.5,41.5C 162.173,42.8001 160.84,44.1335 159.5,45.5C 159.167,45 158.833,44.5 158.5,44C 160.046,38.5596 163.379,36.3929 168.5,37.5 Z"/></g>
<g><path style="opacity:1" fill="#242424" d="M 47.5,42.5 C 52.3803,44.3331 54.7136,47.6664 54.5,52.5C 51.37,49.7068 49.0366,46.3734 47.5,42.5 Z"/></g>
<g><path style="opacity:0.067" fill="#d6eae3" d="M 37.5,44.5 C 36.8333,43.1667 36.8333,43.1667 37.5,44.5 Z"/></g>
<g><path style="opacity:1" fill="#b0cec1" d="M 138.5,41.5 C 143.971,44.1203 149.638,46.287 155.5,48C 154.419,49.7106 154.752,51.2106 156.5,52.5C 152.889,50.3563 149.222,48.1896 145.5,46C 142.768,45.587 140.101,44.9203 137.5,44C 137.833,43.6667 138.167,43.3333 138.5,43C 134.91,41.4698 131.243,40.1365 127.5,39C 131.35,38.8916 135.017,39.7249 138.5,41.5 Z"/></g>
<g><path style="opacity:0.098" fill="#d3e9e1" d="M 190.5,47.5 C 191.833,48.1667 191.833,48.1667 190.5,47.5 Z"/></g>
<g><path style="opacity:0.098" fill="#d3e9e1" d="M 190.5,48.5 C 189.833,49.1667 189.833,49.1667 190.5,48.5 Z"/></g>
<g><path style="opacity:0.016" fill="#dcf4eb" d="M 32.5,50.5 C 31.8333,49.1667 31.8333,49.1667 32.5,50.5 Z"/></g>
<g><path style="opacity:1" fill="#22201f" d="M 175.5,44.5 C 178.41,45.9732 179.077,48.1399 177.5,51C 176.552,51.4828 175.552,51.6495 174.5,51.5C 174.296,53.6854 173.63,55.6854 172.5,57.5C 171.522,57.189 170.855,56.5223 170.5,55.5C 172.086,53.8273 172.753,51.8273 172.5,49.5C 173.675,49.719 174.675,49.3857 175.5,48.5C 174.609,47.4104 173.609,47.4104 172.5,48.5C 171.185,50.3159 169.685,51.9825 168,53.5C 166.77,52.7248 166.437,51.7248 167,50.5C 169.207,47.436 172.041,45.436 175.5,44.5 Z"/></g>
<g><path style="opacity:1" fill="#252324" d="M 45.5,45.5 C 46.8069,46.8016 46.8069,48.135 45.5,49.5C 47.316,51.8169 49.316,53.9835 51.5,56C 51.1667,56.3333 50.8333,56.6667 50.5,57C 47.5553,56.253 45.2219,54.4196 43.5,51.5C 42.3247,52.8549 41.3247,52.6883 40.5,51C 41.8228,50.1841 42.4894,49.0174 42.5,47.5C 43.5,46.8333 44.5,46.1667 45.5,45.5 Z"/></g>
<g><path style="opacity:1" fill="#f1f9f2" d="M 119.5,36.5 C 108.584,35.6924 97.9174,36.8591 87.5,40C 91.8532,39.8337 96.1866,39.167 100.5,38C 107.346,37.8283 114.013,37.3283 120.5,36.5C 122.591,36.6816 124.591,36.3482 126.5,35.5C 129.632,36.9779 132.965,37.9779 136.5,38.5C 137.612,39.2652 138.279,40.2652 138.5,41.5C 135.017,39.7249 131.35,38.8916 127.5,39C 131.243,40.1365 134.91,41.4698 138.5,43C 138.167,43.3333 137.833,43.6667 137.5,44C 140.101,44.9203 142.768,45.587 145.5,46C 149.222,48.1896 152.889,50.3563 156.5,52.5C 159.452,56.1185 162.785,59.4519 166.5,62.5C 169.608,65.3283 172.275,68.6617 174.5,72.5C 175.651,73.731 176.817,73.731 178,72.5C 178.333,74.0468 177.833,75.3801 176.5,76.5C 178.029,78.1881 179.863,79.5214 182,80.5C 183.829,82.7332 184.329,85.0665 183.5,87.5C 182.85,89.4352 182.517,91.4352 182.5,93.5C 182.995,106.478 182.662,119.478 181.5,132.5C 180.359,135.254 179.025,137.921 177.5,140.5C 177.552,138.097 177.219,135.764 176.5,133.5C 176.833,133.5 177.167,133.5 177.5,133.5C 178.792,131.745 179.792,129.745 180.5,127.5C 181.833,116.833 181.833,106.167 180.5,95.5C 179.611,92.7213 178.444,90.0546 177,87.5C 176.667,87.8333 176.333,88.1667 176,88.5C 175.825,84.789 175.325,81.1224 174.5,77.5C 173.943,79.3316 172.943,80.6649 171.5,81.5C 171.799,79.396 171.466,77.396 170.5,75.5C 166.606,71.3923 162.939,67.059 159.5,62.5C 153.459,58.751 147.125,55.751 140.5,53.5C 140.5,52.1667 140.5,50.8333 140.5,49.5C 143.988,49.1009 144.154,48.4342 141,47.5C 136.95,50.0229 132.95,50.0229 129,47.5C 125.986,48.6927 122.819,49.3593 119.5,49.5C 116.41,49.4783 113.743,48.8117 111.5,47.5C 116.931,48.9064 119.265,46.9064 118.5,41.5C 100.901,40.5863 86.2347,46.5863 74.5,59.5C 73.0221,58.5525 72.0221,57.2191 71.5,55.5C 66.5,55.8333 63.8333,58.5 63.5,63.5C 62.325,63.281 61.325,63.6143 60.5,64.5C 58.754,68.3267 56.754,71.9934 54.5,75.5C 53.497,79.5121 52.497,83.5121 51.5,87.5C 50.5176,91.3164 49.8509,95.3164 49.5,99.5C 47.5,99.5 45.5,99.5 43.5,99.5C 43.3337,106.841 43.5003,114.174 44,121.5C 44.5864,124.019 45.7531,126.019 47.5,127.5C 47.1601,130.144 47.8267,132.477 49.5,134.5C 48.0451,136.22 47.2117,138.22 47,140.5C 45.0087,136.157 43.1754,131.823 41.5,127.5C 40.3714,121.524 39.3714,115.524 38.5,109.5C 38.5,107.5 38.5,105.5 38.5,103.5C 39.2005,96.6994 40.5338,90.0327 42.5,83.5C 45.31,78.5534 48.1433,73.5534 51,68.5C 52.0113,67.6634 53.1779,67.33 54.5,67.5C 54.3433,66.1266 54.51,64.7932 55,63.5C 58.1667,60.3333 61.3333,57.1667 64.5,54C 63.9056,53.5357 63.2389,53.369 62.5,53.5C 63.1495,51.5648 63.4828,49.5648 63.5,47.5C 65.1992,47.6602 66.8659,47.4935 68.5,47C 69.0509,45.6015 69.3842,44.2682 69.5,43C 75.2438,41.8079 80.9105,40.3079 86.5,38.5C 86.8333,37.8333 87.1667,37.1667 87.5,36.5C 97.053,35.9125 106.553,34.9125 116,33.5C 117.5,33.8333 119,34.1667 120.5,34.5C 120.137,35.1835 119.804,35.8501 119.5,36.5 Z"/></g>
<g><path style="opacity:1" fill="#8ca59f" d="M 77.5,43.5 C 79.3786,43.3932 79.7119,43.8932 78.5,45C 65.6927,52.2639 65.3594,51.7639 77.5,43.5 Z"/></g>
<g><path style="opacity:1" fill="#aacb4b" d="M 111.5,47.5 C 95.5808,48.8122 83.5808,56.1455 75.5,69.5C 74.6236,69.3691 73.9569,69.7025 73.5,70.5C 68.5183,78.0936 65.8517,86.427 65.5,95.5C 64.5269,97.9479 64.1936,100.615 64.5,103.5C 62.8333,103.5 61.1667,103.5 59.5,103.5C 58.7607,94.4969 60.0941,85.8302 63.5,77.5C 67.4554,71.6407 71.1221,65.6407 74.5,59.5C 86.2347,46.5863 100.901,40.5863 118.5,41.5C 119.265,46.9064 116.931,48.9064 111.5,47.5 Z"/></g>
<g><path style="opacity:1" fill="#94af98" d="M 119.5,36.5 C 119.833,36.5 120.167,36.5 120.5,36.5C 114.013,37.3283 107.346,37.8283 100.5,38C 96.1866,39.167 91.8532,39.8337 87.5,40C 97.9174,36.8591 108.584,35.6924 119.5,36.5 Z"/></g>
<g><path style="opacity:1" fill="#e2e8e6" d="M 133.5,14.5 C 136.199,14.4661 138.699,15.1328 141,16.5C 141.333,16.1667 141.667,15.8333 142,15.5C 144.592,17.3104 147.426,18.6437 150.5,19.5C 153.101,20.8007 155.768,22.134 158.5,23.5C 160.336,25.588 162.669,26.9213 165.5,27.5C 167.951,30.2768 170.951,32.2768 174.5,33.5C 177.731,38.2391 181.564,42.5724 186,46.5C 189.688,51.2185 192.855,56.2185 195.5,61.5C 193.529,59.4066 191.196,57.74 188.5,56.5C 187.735,57.6119 186.735,58.2786 185.5,58.5C 185.046,55.8602 183.879,53.5268 182,51.5C 180.383,52.5358 180.216,53.7025 181.5,55C 179.649,56.7524 177.649,58.2524 175.5,59.5C 175.631,58.7611 175.464,58.0944 175,57.5C 174.23,58.5981 173.397,58.5981 172.5,57.5C 173.63,55.6854 174.296,53.6854 174.5,51.5C 175.552,51.6495 176.552,51.4828 177.5,51C 179.077,48.1399 178.41,45.9732 175.5,44.5C 175.313,42.4357 174.813,40.4357 174,38.5C 172.841,38.1567 171.341,38.1567 169.5,38.5C 168.833,38.5 168.5,38.1667 168.5,37.5C 169.303,36.5768 169.47,35.5768 169,34.5C 167.601,34.5012 166.101,34.8346 164.5,35.5C 164.167,35.1667 163.833,34.8333 163.5,34.5C 164.167,33.8333 164.833,33.1667 165.5,32.5C 163.833,31.3336 162.166,31.3336 160.5,32.5C 160.189,31.5222 159.522,30.8555 158.5,30.5C 155.997,35.8031 154.997,35.6365 155.5,30C 154.99,28.1739 154.156,28.0072 153,29.5C 150.767,32.659 149.934,35.9923 150.5,39.5C 151.5,38.1667 152.5,36.8333 153.5,35.5C 153.833,35.6667 154.167,35.8333 154.5,36C 154.106,38.0599 154.106,40.2266 154.5,42.5C 153.033,45.2583 152.367,44.925 152.5,41.5C 148.44,42.1518 146.44,40.4851 146.5,36.5C 147.123,33.4036 148.123,30.4036 149.5,27.5C 147.705,23.3932 145.205,22.7266 142,25.5C 141.163,27.8383 140.33,30.1716 139.5,32.5C 139.833,33.1667 140.167,33.8333 140.5,34.5C 141.803,31.5634 143.47,28.8968 145.5,26.5C 145.032,28.1811 145.032,30.0144 145.5,32C 142.985,32.9389 142.318,34.4389 143.5,36.5C 142.081,37.4511 140.415,37.7845 138.5,37.5C 138.741,35.1137 138.075,33.1137 136.5,31.5C 137.162,28.8516 137.829,26.1849 138.5,23.5C 138.167,22.8333 137.833,22.1667 137.5,21.5C 137.167,21.8333 136.833,22.1667 136.5,22.5C 136.113,25.2061 135.113,27.5395 133.5,29.5C 132.819,26.1012 132.486,22.7678 132.5,19.5C 130.416,22.8307 129.416,26.4974 129.5,30.5C 128.778,29.4489 127.778,28.7822 126.5,28.5C 126.854,25.5794 125.854,23.2461 123.5,21.5C 127.444,19.5959 127.11,18.5959 122.5,18.5C 125.014,17.6744 127.681,17.5078 130.5,18C 130.043,17.586 129.709,17.086 129.5,16.5C 130.766,15.6376 132.099,14.9709 133.5,14.5 Z"/></g>
<g><path style="opacity:1" fill="#d2cecf" d="M 163.5,41.5 C 164.754,37.69 165.754,37.69 166.5,41.5C 165.5,41.5 164.5,41.5 163.5,41.5 Z"/></g>
<g><path style="opacity:1" fill="#212021" d="M 160.5,32.5 C 158.687,35.9275 156.687,39.2609 154.5,42.5C 154.106,40.2266 154.106,38.0599 154.5,36C 154.167,35.8333 153.833,35.6667 153.5,35.5C 152.5,36.8333 151.5,38.1667 150.5,39.5C 149.934,35.9923 150.767,32.659 153,29.5C 154.156,28.0072 154.99,28.1739 155.5,30C 154.997,35.6365 155.997,35.8031 158.5,30.5C 159.522,30.8555 160.189,31.5222 160.5,32.5 Z"/></g>
<g><path style="opacity:1" fill="#212220" d="M 146.5,36.5 C 145.5,36.5 144.5,36.5 143.5,36.5C 142.318,34.4389 142.985,32.9389 145.5,32C 145.032,30.0144 145.032,28.1811 145.5,26.5C 143.47,28.8968 141.803,31.5634 140.5,34.5C 140.167,33.8333 139.833,33.1667 139.5,32.5C 140.33,30.1716 141.163,27.8383 142,25.5C 145.205,22.7266 147.705,23.3932 149.5,27.5C 148.123,30.4036 147.123,33.4036 146.5,36.5 Z"/></g>
<g><path style="opacity:1" fill="#aacd48" d="M 140.5,53.5 C 147.125,55.751 153.459,58.751 159.5,62.5C 162.939,67.059 166.606,71.3923 170.5,75.5C 171.466,77.396 171.799,79.396 171.5,81.5C 170.022,81.762 168.689,81.4287 167.5,80.5C 164.453,77.4552 161.787,74.1219 159.5,70.5C 156.156,68.8264 153.156,66.6597 150.5,64C 145.885,61.0734 140.885,59.24 135.5,58.5C 129.355,57.5098 123.022,57.1765 116.5,57.5C 108.225,59.2645 100.558,62.5978 93.5,67.5C 91.2472,65.5497 90.9139,63.2163 92.5,60.5C 102.083,54.2068 112.75,51.2068 124.5,51.5C 128.833,51.6667 133.167,51.8333 137.5,52C 138.244,53.0386 139.244,53.5386 140.5,53.5 Z"/></g>
<g><path style="opacity:1" fill="#1d1d1d" d="M 185.5,58.5 C 184.417,58.4606 183.417,58.1272 182.5,57.5C 180.5,59.1667 178.5,60.8333 176.5,62.5C 174.481,61.8671 174.147,60.8671 175.5,59.5C 177.649,58.2524 179.649,56.7524 181.5,55C 180.216,53.7025 180.383,52.5358 182,51.5C 183.879,53.5268 185.046,55.8602 185.5,58.5 Z"/></g>
<g><path style="opacity:1" fill="#1f1d1d" d="M 36.5,55.5 C 40.664,55.1429 43.8307,56.8095 46,60.5C 46.5908,61.4835 46.2575,62.1501 45,62.5C 43.5603,61.8524 42.0603,61.5191 40.5,61.5C 40.5743,57.8389 39.5743,57.1723 37.5,59.5C 38.8587,61.6922 40.6921,63.3589 43,64.5C 43.5628,65.7248 43.2295,66.7248 42,67.5C 40.292,65.4565 38.292,63.7899 36,62.5C 35.5065,60.8659 35.3398,59.1992 35.5,57.5C 35.8333,56.8333 36.1667,56.1667 36.5,55.5 Z"/></g>
<g><path style="opacity:1" fill="#95b0a1" d="M 156.5,52.5 C 160.855,54.8548 164.188,58.1881 166.5,62.5C 162.785,59.4519 159.452,56.1185 156.5,52.5 Z"/></g>
<g><path style="opacity:1" fill="#f1f5e1" d="M 111.5,47.5 C 113.743,48.8117 116.41,49.4783 119.5,49.5C 122.819,49.3593 125.986,48.6927 129,47.5C 132.95,50.0229 136.95,50.0229 141,47.5C 144.154,48.4342 143.988,49.1009 140.5,49.5C 140.5,50.8333 140.5,52.1667 140.5,53.5C 139.244,53.5386 138.244,53.0386 137.5,52C 133.167,51.8333 128.833,51.6667 124.5,51.5C 112.75,51.2068 102.083,54.2068 92.5,60.5C 90.9139,63.2163 91.2472,65.5497 93.5,67.5C 100.558,62.5978 108.225,59.2645 116.5,57.5C 112.512,60.7508 107.845,62.7508 102.5,63.5C 102.385,65.9468 101.385,67.9468 99.5,69.5C 98.6618,69.8417 98.3284,70.5084 98.5,71.5C 95.5381,70.4006 94.5381,71.4006 95.5,74.5C 94.0937,74.9731 93.427,75.9731 93.5,77.5C 92.8333,76.8333 92.1667,76.1667 91.5,75.5C 90.6618,75.1583 90.3284,74.4916 90.5,73.5C 92.2517,73.5824 93.2517,72.7491 93.5,71C 90.0149,68.3485 86.6816,65.5151 83.5,62.5C 81.579,64.4691 81.579,65.9691 83.5,67C 80.9824,68.1396 80.9824,69.3063 83.5,70.5C 83.44,71.0431 83.1067,71.3764 82.5,71.5C 81.5,70.8333 80.5,70.1667 79.5,69.5C 78.2736,70.3629 76.9403,70.3629 75.5,69.5C 83.5808,56.1455 95.5808,48.8122 111.5,47.5 Z"/></g>
<g><path style="opacity:1" fill="#232323" d="M 186.5,59.5 C 188.225,59.8425 188.725,60.8425 188,62.5C 185.402,65.0277 182.569,66.861 179.5,68C 179.167,67.6667 178.833,67.3333 178.5,67C 181.432,64.7155 184.098,62.2155 186.5,59.5 Z"/></g>
<g><path style="opacity:0.067" fill="#d7e9e0" d="M 22.5,66.5 C 21.8333,65.1667 21.8333,65.1667 22.5,66.5 Z"/></g>
<g><path style="opacity:1" fill="#858489" d="M 90.5,73.5 C 89.5523,69.5294 87.219,68.5294 83.5,70.5C 80.9824,69.3063 80.9824,68.1396 83.5,67C 81.579,65.9691 81.579,64.4691 83.5,62.5C 86.6816,65.5151 90.0149,68.3485 93.5,71C 93.2517,72.7491 92.2517,73.5824 90.5,73.5 Z"/></g>
<g><path style="opacity:1" fill="#ecf9c7" d="M 129.5,65.5 C 133.327,65.7516 136.66,67.0849 139.5,69.5C 135.454,69.7119 132.12,68.3785 129.5,65.5 Z"/></g>
<g><path style="opacity:1" fill="#bfd4c9" d="M 62.5,53.5 C 63.2389,53.369 63.9056,53.5357 64.5,54C 61.3333,57.1667 58.1667,60.3333 55,63.5C 54.51,64.7932 54.3433,66.1266 54.5,67.5C 53.1779,67.33 52.0113,67.6634 51,68.5C 48.1433,73.5534 45.31,78.5534 42.5,83.5C 43.1338,80.0626 44.4672,76.8959 46.5,74C 45.1667,74 43.8333,74 42.5,74C 45.8929,71.3466 47.8929,67.8466 48.5,63.5C 49.2811,64.7287 49.7811,66.062 50,67.5C 51.1667,66.3333 52.3333,65.1667 53.5,64C 52.0439,63.5774 51.5439,62.7441 52,61.5C 52.7175,62.4506 53.5509,62.6172 54.5,62C 57.3714,59.2972 60.0381,56.4639 62.5,53.5 Z"/></g>
<g><path style="opacity:1" fill="#f9faf7" d="M 75.5,69.5 C 76.9403,70.3629 78.2736,70.3629 79.5,69.5C 80.5,70.1667 81.5,70.8333 82.5,71.5C 83.1067,71.3764 83.44,71.0431 83.5,70.5C 87.219,68.5294 89.5523,69.5294 90.5,73.5C 90.3284,74.4916 90.6618,75.1583 91.5,75.5C 88.3469,86.0258 87.3469,96.5258 88.5,107C 89.7932,107.49 91.1266,107.657 92.5,107.5C 92.3342,102.821 92.5008,98.1548 93,93.5C 94.0875,95.9316 94.5875,95.5983 94.5,92.5C 95.5,92.5 96.5,92.5 97.5,92.5C 97.2148,90.712 97.5481,89.0453 98.5,87.5C 99.0225,90.5089 98.5225,93.5089 97,96.5C 96.0164,94.2053 95.1831,94.5386 94.5,97.5C 95.7985,101.441 96.7985,104.774 97.5,107.5C 98.8333,106.167 100.167,104.833 101.5,103.5C 103.588,102.061 105.921,101.394 108.5,101.5C 109.912,103.23 109.578,104.73 107.5,106C 111.236,107.507 111.236,108.34 107.5,108.5C 107.5,109.5 107.5,110.5 107.5,111.5C 106.448,111.351 105.448,111.517 104.5,112C 107.051,112.002 109.051,112.836 110.5,114.5C 108.692,114.491 107.025,114.991 105.5,116C 103.097,117.853 100.764,119.686 98.5,121.5C 97.5595,124.125 96.3928,124.125 95,121.5C 94.6667,121.833 94.3333,122.167 94,122.5C 93.1667,120.333 91.6667,118.833 89.5,118C 90.4506,117.282 90.6172,116.449 90,115.5C 87.9098,118.022 86.0765,120.688 84.5,123.5C 83.8333,123.5 83.5,123.833 83.5,124.5C 79.9924,126.425 78.659,129.425 79.5,133.5C 80.9187,134.451 82.5853,134.784 84.5,134.5C 84.281,135.675 84.6143,136.675 85.5,137.5C 88.7775,135.4 91.9441,133.066 95,130.5C 95.4643,131.094 95.631,131.761 95.5,132.5C 94.8676,135.362 93.8676,138.196 92.5,141C 93.7279,142.49 93.7279,143.99 92.5,145.5C 86.2046,146.939 79.8712,148.272 73.5,149.5C 71.1829,148.18 69.1829,146.514 67.5,144.5C 68.9187,143.549 70.5853,143.216 72.5,143.5C 72.7947,141.265 72.4614,139.265 71.5,137.5C 70.5326,136.194 69.1993,135.527 67.5,135.5C 67.7009,132.235 66.5343,129.569 64,127.5C 62.7708,123.379 61.2708,119.379 59.5,115.5C 59.5,112.167 59.5,108.833 59.5,105.5C 61.924,105.808 64.2573,105.474 66.5,104.5C 68.1876,101.039 67.8542,98.0394 65.5,95.5C 65.8517,86.427 68.5183,78.0936 73.5,70.5C 73.9569,69.7025 74.6236,69.3691 75.5,69.5 Z"/></g>
<g><path style="opacity:0.031" fill="#dae4de" d="M 19.5,72.5 C 18.8333,71.1667 18.8333,71.1667 19.5,72.5 Z"/></g>
<g><path style="opacity:1" fill="#201e1e" d="M 29.5,67.5 C 29.5,67.1667 29.5,66.8333 29.5,66.5C 34.6358,64.6424 36.6358,66.3091 35.5,71.5C 34.6143,70.675 34.281,69.675 34.5,68.5C 33.325,68.281 32.325,68.6143 31.5,69.5C 33.4311,71.8044 35.7644,73.6378 38.5,75C 37.9747,75.6924 37.3081,76.1924 36.5,76.5C 34.2011,75.3649 32.0344,74.0316 30,72.5C 29.5065,70.8659 29.3398,69.1992 29.5,67.5 Z"/></g>
<g><path style="opacity:1" fill="#f8f9f6" d="M 116.5,57.5 C 123.022,57.1765 129.355,57.5098 135.5,58.5C 133.052,59.4731 130.385,59.8064 127.5,59.5C 127.205,61.7354 127.539,63.7354 128.5,65.5C 128.833,65.5 129.167,65.5 129.5,65.5C 132.12,68.3785 135.454,69.7119 139.5,69.5C 139.833,69.5 140.167,69.5 140.5,69.5C 141.007,70.8589 142.007,71.8589 143.5,72.5C 139.254,74.1294 135.254,76.1294 131.5,78.5C 135.559,78.8471 139.559,78.8471 143.5,78.5C 145.573,81.119 146.573,84.119 146.5,87.5C 147.5,87.5 148.5,87.5 149.5,87.5C 152.375,89.2485 153.708,91.9152 153.5,95.5C 157.477,97.4232 159.477,100.757 159.5,105.5C 159.833,108.167 160.167,110.833 160.5,113.5C 157.931,113.738 156.265,115.071 155.5,117.5C 154.505,123.455 153.672,129.455 153,135.5C 151.944,139.939 150.111,143.939 147.5,147.5C 147.5,140.833 147.5,134.167 147.5,127.5C 147.664,124.813 147.497,122.146 147,119.5C 144.743,117.954 142.576,116.288 140.5,114.5C 140.167,115 139.833,115.5 139.5,116C 140.239,120.127 140.739,124.294 141,128.5C 141.083,126.494 141.583,125.494 142.5,125.5C 142.813,129.042 142.479,132.375 141.5,135.5C 140.241,131.952 139.407,128.285 139,124.5C 138.333,123.167 137.667,123.167 137,124.5C 135.576,130.776 135.242,137.109 136,143.5C 137.194,122.263 138.694,122.263 140.5,143.5C 136.181,145.778 131.681,147.778 127,149.5C 125.97,149.164 125.47,148.497 125.5,147.5C 126.376,147.631 127.043,147.298 127.5,146.5C 127.756,141.939 127.756,137.273 127.5,132.5C 125.938,135.963 125.105,139.63 125,143.5C 122.297,140.629 119.464,137.962 116.5,135.5C 116.5,135.167 116.5,134.833 116.5,134.5C 119.463,133.537 121.463,131.537 122.5,128.5C 125.768,130.645 129.268,132.312 133,133.5C 133.478,128.709 132.978,124.042 131.5,119.5C 131.338,117.473 131.505,115.473 132,113.5C 132.569,117.361 133.402,117.361 134.5,113.5C 134.833,113.667 135.167,113.833 135.5,114C 133.077,118.054 132.91,122.221 135,126.5C 135.822,124.212 136.489,121.878 137,119.5C 137.333,120.5 137.667,121.5 138,122.5C 137.798,119.772 137.964,117.105 138.5,114.5C 137.091,114.178 135.591,113.178 134,111.5C 133.667,111.833 133.333,112.167 133,112.5C 131.275,111.536 129.441,110.869 127.5,110.5C 126.655,109.329 125.989,107.995 125.5,106.5C 125.821,105.183 126.154,103.849 126.5,102.5C 126.253,101.287 125.586,100.62 124.5,100.5C 121.757,101.388 119.09,102.555 116.5,104C 118.301,104.317 118.634,104.984 117.5,106C 116.167,106.667 114.833,106.667 113.5,106C 112.143,101.742 110.476,97.5752 108.5,93.5C 109.374,91.2534 109.708,88.9201 109.5,86.5C 109.506,85.5826 108.506,85.0826 106.5,85C 107.823,84.1841 108.489,83.0174 108.5,81.5C 110.199,81.6602 111.866,81.4935 113.5,81C 111.942,80.79 110.609,80.29 109.5,79.5C 110.773,78.9232 110.773,78.2565 109.5,77.5C 106.968,77.9144 104.468,78.2477 102,78.5C 101.383,77.5509 101.549,76.7175 102.5,76C 100.939,75.6824 99.7724,74.8491 99,73.5C 97.9593,75.3115 96.7927,75.6448 95.5,74.5C 96.8333,73.8333 97.8333,72.8333 98.5,71.5C 99.1499,71.1961 99.8165,70.8627 100.5,70.5C 101.696,70.8457 101.696,71.3457 100.5,72C 101.833,72.3333 103.167,72.6667 104.5,73C 103.304,73.6543 103.304,74.1543 104.5,74.5C 105.582,72.2163 107.248,71.0496 109.5,71C 107.671,72.1133 106.837,73.6133 107,75.5C 107.725,74.9415 108.558,74.6082 109.5,74.5C 111.977,75.3848 113.977,76.7182 115.5,78.5C 115.586,79.4959 115.252,80.3292 114.5,81C 115.448,81.4828 116.448,81.6495 117.5,81.5C 120.969,80.8872 122.969,82.2206 123.5,85.5C 122.5,85.5 121.5,85.5 120.5,85.5C 120.433,86.9587 120.766,88.2921 121.5,89.5C 123.141,92.2764 124.641,95.2764 126,98.5C 126.167,98 126.333,97.5 126.5,97C 126.685,92.3491 126.018,87.6824 124.5,83C 126.112,80.0059 125.445,77.8392 122.5,76.5C 121.977,74.2921 120.644,72.7921 118.5,72C 112.327,69.9992 105.994,69.1658 99.5,69.5C 101.385,67.9468 102.385,65.9468 102.5,63.5C 107.845,62.7508 112.512,60.7508 116.5,57.5 Z"/></g>
<g><path style="opacity:1" fill="#66656c" d="M 98.5,71.5 C 97.8333,72.8333 96.8333,73.8333 95.5,74.5C 94.5381,71.4006 95.5381,70.4006 98.5,71.5 Z"/></g>
<g><path style="opacity:1" fill="#939390" d="M 99.5,69.5 C 105.994,69.1658 112.327,69.9992 118.5,72C 120.644,72.7921 121.977,74.2921 122.5,76.5C 119.812,76.1658 117.479,76.8325 115.5,78.5C 113.977,76.7182 111.977,75.3848 109.5,74.5C 108.558,74.6082 107.725,74.9415 107,75.5C 106.837,73.6133 107.671,72.1133 109.5,71C 107.248,71.0496 105.582,72.2163 104.5,74.5C 103.304,74.1543 103.304,73.6543 104.5,73C 103.167,72.6667 101.833,72.3333 100.5,72C 101.696,71.3457 101.696,70.8457 100.5,70.5C 99.8165,70.8627 99.1499,71.1961 98.5,71.5C 98.3284,70.5084 98.6618,69.8417 99.5,69.5 Z"/></g>
<g><path style="opacity:1" fill="#f7f7f7" d="M 114.5,72.5 C 116.842,72.5041 118.842,73.3375 120.5,75C 118.098,75.8141 115.765,75.6474 113.5,74.5C 113.863,73.8165 114.196,73.1499 114.5,72.5 Z"/></g>
<g><path style="opacity:1" fill="#1e1e1e" d="M 191.5,71.5 C 192.675,71.281 193.675,71.6143 194.5,72.5C 193.509,73.6652 192.509,74.8319 191.5,76C 191.833,76.5 192.167,77 192.5,77.5C 196.44,76.1636 197.106,76.9969 194.5,80C 191.804,80.7648 189.304,81.9315 187,83.5C 186.403,81.0759 187.237,79.2425 189.5,78C 188.127,76.5213 186.627,76.688 185,78.5C 184.333,77.5 184.333,76.5 185,75.5C 187.314,74.2668 189.481,72.9334 191.5,71.5 Z"/></g>
<g><path style="opacity:1" fill="#e8f5c6" d="M 71.5,55.5 C 72.0221,57.2191 73.0221,58.5525 74.5,59.5C 71.1221,65.6407 67.4554,71.6407 63.5,77.5C 60.0941,85.8302 58.7607,94.4969 59.5,103.5C 61.1667,103.5 62.8333,103.5 64.5,103.5C 64.1936,100.615 64.5269,97.9479 65.5,95.5C 67.8542,98.0394 68.1876,101.039 66.5,104.5C 64.2573,105.474 61.924,105.808 59.5,105.5C 59.5,108.833 59.5,112.167 59.5,115.5C 53.4763,95.4513 57.3096,77.4513 71,61.5C 71.4955,59.5273 71.6621,57.5273 71.5,55.5 Z"/></g>
<g><path style="opacity:1" fill="#f9f9f9" d="M 122.5,76.5 C 122.649,77.552 122.483,78.552 122,79.5C 120.378,80.0989 118.878,80.7656 117.5,81.5C 116.448,81.6495 115.448,81.4828 114.5,81C 115.252,80.3292 115.586,79.4959 115.5,78.5C 117.479,76.8325 119.812,76.1658 122.5,76.5 Z"/></g>
<g><path style="opacity:1" fill="#ddf0b2" d="M 135.5,58.5 C 140.885,59.24 145.885,61.0734 150.5,64C 153.156,66.6597 156.156,68.8264 159.5,70.5C 161.787,74.1219 164.453,77.4552 167.5,80.5C 168.689,81.4287 170.022,81.762 171.5,81.5C 170.167,84.1667 170.167,86.8333 171.5,89.5C 166.158,82.851 160.491,76.351 154.5,70C 149.575,67.1404 144.575,64.4737 139.5,62C 135.848,61.5014 132.182,61.3347 128.5,61.5C 128.5,62.8333 128.5,64.1667 128.5,65.5C 127.539,63.7354 127.205,61.7354 127.5,59.5C 130.385,59.8064 133.052,59.4731 135.5,58.5 Z"/></g>
<g><path style="opacity:0.608" fill="#a0b5aa" d="M 200.5,71.5 C 204.677,78.8597 207.01,86.8597 207.5,95.5C 205.185,87.5872 202.852,79.5872 200.5,71.5 Z"/></g>
<g><path style="opacity:1" fill="#1e1d1d" d="M 26.5,76.5 C 29.4769,77.0708 32.3103,78.0708 35,79.5C 35.6667,80.5 35.6667,81.5 35,82.5C 33.5421,81.2532 32.0421,81.2532 30.5,82.5C 29.6143,81.675 29.281,80.675 29.5,79.5C 27.6453,79.272 26.8119,79.9387 27,81.5C 29.3216,83.1118 31.8216,84.4452 34.5,85.5C 34.1667,86.5 33.5,87.1667 32.5,87.5C 30.2195,86.2981 27.8862,85.2981 25.5,84.5C 24.0271,81.5481 24.3605,78.8814 26.5,76.5 Z"/></g>
<g><path style="opacity:1" fill="#070707" d="M 109.5,79.5 C 110.609,80.29 111.942,80.79 113.5,81C 111.866,81.4935 110.199,81.6602 108.5,81.5C 108.5,81.1667 108.5,80.8333 108.5,80.5C 108.5,79.8333 108.833,79.5 109.5,79.5 Z"/></g>
<g><path style="opacity:1" fill="#e8e8e8" d="M 108.5,80.5 C 108.5,80.8333 108.5,81.1667 108.5,81.5C 107.143,82.6854 105.643,83.6854 104,84.5C 102.014,84.1505 100.181,84.1505 98.5,84.5C 99.1322,82.0353 100.632,80.3686 103,79.5C 103.308,80.3081 103.808,80.9747 104.5,81.5C 105.736,80.7542 107.07,80.4208 108.5,80.5 Z"/></g>
<g><path style="opacity:1" fill="#8ca89d" d="M 42.5,83.5 C 40.5338,90.0327 39.2005,96.6994 38.5,103.5C 37.8529,102.726 37.5195,101.726 37.5,100.5C 38.1042,94.3961 39.7709,88.7294 42.5,83.5 Z"/></g>
<g><path style="opacity:1" fill="#abcb4d" d="M 71.5,55.5 C 71.6621,57.5273 71.4955,59.5273 71,61.5C 57.3096,77.4513 53.4763,95.4513 59.5,115.5C 61.2708,119.379 62.7708,123.379 64,127.5C 66.5343,129.569 67.7009,132.235 67.5,135.5C 69.1993,135.527 70.5326,136.194 71.5,137.5C 71.5,138.833 71.5,140.167 71.5,141.5C 69.8008,141.66 68.1341,141.494 66.5,141C 53.6752,125.555 48.6752,107.722 51.5,87.5C 52.497,83.5121 53.497,79.5121 54.5,75.5C 56.754,71.9934 58.754,68.3267 60.5,64.5C 61.325,63.6143 62.325,63.281 63.5,63.5C 63.8333,58.5 66.5,55.8333 71.5,55.5 Z"/></g>
<g><path style="opacity:1" fill="#8e8e8e" d="M 122.5,76.5 C 125.445,77.8392 126.112,80.0059 124.5,83C 126.018,87.6824 126.685,92.3491 126.5,97C 126.333,97.5 126.167,98 126,98.5C 124.641,95.2764 123.141,92.2764 121.5,89.5C 120.766,88.2921 120.433,86.9587 120.5,85.5C 121.5,85.5 122.5,85.5 123.5,85.5C 122.969,82.2206 120.969,80.8872 117.5,81.5C 118.878,80.7656 120.378,80.0989 122,79.5C 122.483,78.552 122.649,77.552 122.5,76.5 Z"/></g>
<g><path style="opacity:1" fill="#1f201f" d="M 196.5,84.5 C 201.291,87.8615 201.624,91.6949 197.5,96C 191.368,97.373 188.368,94.873 188.5,88.5C 190.277,85.6109 192.944,84.2776 196.5,84.5 Z"/></g>
<g><path style="opacity:1" fill="#9b9b9b" d="M 121.5,89.5 C 122.075,92.5715 120.909,94.5715 118,95.5C 115.61,94.7221 113.443,93.5555 111.5,92C 114.237,88.6491 117.57,87.8158 121.5,89.5 Z"/></g>
<g><path style="opacity:1" fill="#f4fae2" d="M 140.5,69.5 C 153.043,74.2235 161.876,82.8902 167,95.5C 169.038,100.807 170.538,106.141 171.5,111.5C 171.5,118.833 171.5,126.167 171.5,133.5C 170.167,134.167 168.833,134.833 167.5,135.5C 170.862,114.924 166.029,96.5906 153,80.5C 151.301,79.5939 149.467,79.2606 147.5,79.5C 147.365,82.4175 148.032,85.0842 149.5,87.5C 148.5,87.5 147.5,87.5 146.5,87.5C 146.573,84.119 145.573,81.119 143.5,78.5C 139.559,78.8471 135.559,78.8471 131.5,78.5C 135.254,76.1294 139.254,74.1294 143.5,72.5C 142.007,71.8589 141.007,70.8589 140.5,69.5 Z"/></g>
<g><path style="opacity:1" fill="#969696" d="M 109.5,79.5 C 108.833,79.5 108.5,79.8333 108.5,80.5C 107.07,80.4208 105.736,80.7542 104.5,81.5C 103.808,80.9747 103.308,80.3081 103,79.5C 100.632,80.3686 99.1322,82.0353 98.5,84.5C 100.181,84.1505 102.014,84.1505 104,84.5C 105.643,83.6854 107.143,82.6854 108.5,81.5C 108.489,83.0174 107.823,84.1841 106.5,85C 108.506,85.0826 109.506,85.5826 109.5,86.5C 108.833,87.1667 108.167,87.8333 107.5,88.5C 101.776,85.2114 99.7761,86.878 101.5,93.5C 102.5,93.5 103.5,93.5 104.5,93.5C 104.657,96.9111 105.991,99.5778 108.5,101.5C 105.921,101.394 103.588,102.061 101.5,103.5C 101.108,101.821 100.608,100.154 100,98.5C 97.8951,101.107 97.0617,104.107 97.5,107.5C 96.7985,104.774 95.7985,101.441 94.5,97.5C 95.1831,94.5386 96.0164,94.2053 97,96.5C 98.5225,93.5089 99.0225,90.5089 98.5,87.5C 97.5481,89.0453 97.2148,90.712 97.5,92.5C 96.5,92.5 95.5,92.5 94.5,92.5C 94.5875,95.5983 94.0875,95.9316 93,93.5C 92.5008,98.1548 92.3342,102.821 92.5,107.5C 91.1266,107.657 89.7932,107.49 88.5,107C 87.3469,96.5258 88.3469,86.0258 91.5,75.5C 92.1667,76.1667 92.8333,76.8333 93.5,77.5C 93.427,75.9731 94.0937,74.9731 95.5,74.5C 96.7927,75.6448 97.9593,75.3115 99,73.5C 99.7724,74.8491 100.939,75.6824 102.5,76C 101.549,76.7175 101.383,77.5509 102,78.5C 104.468,78.2477 106.968,77.9144 109.5,77.5C 110.773,78.2565 110.773,78.9232 109.5,79.5 Z"/></g>
<g><path style="opacity:1" fill="#f8f8fa" d="M 93.5,77.5 C 94.8333,77.5 95.5,78.1667 95.5,79.5C 94.2101,80.0577 93.3768,81.0577 93,82.5C 92.6155,80.8034 92.7822,79.1368 93.5,77.5 Z"/></g>
<g><path style="opacity:1" fill="#ebece9" d="M 95.5,79.5 C 96.4733,78.016 97.8067,77.516 99.5,78C 98.6959,79.7713 97.5292,81.2713 96,82.5C 95.5172,81.552 95.3505,80.552 95.5,79.5 Z"/></g>
<g><path style="opacity:1" fill="#e3e3e3" d="M 107.5,88.5 C 106.752,90.3325 105.752,91.9991 104.5,93.5C 103.5,93.5 102.5,93.5 101.5,93.5C 99.7761,86.878 101.776,85.2114 107.5,88.5 Z"/></g>
<g><path style="opacity:1" fill="#212020" d="M 22.5,97.5 C 20.6465,95.3086 20.3132,92.9752 21.5,90.5C 25.0665,89.9112 28.7332,89.9112 32.5,90.5C 32.5,91.5 32.5,92.5 32.5,93.5C 30.5328,93.2606 28.6995,93.5939 27,94.5C 24.5969,91.6345 23.7636,91.8012 24.5,95C 27.1193,95.1515 29.4527,95.9848 31.5,97.5C 28.5274,98.5089 25.5274,98.5089 22.5,97.5 Z"/></g>
<g><path style="opacity:1" fill="#f1f4f2" d="M 200.5,71.5 C 202.852,79.5872 205.185,87.5872 207.5,95.5C 208.338,95.8417 208.672,96.5084 208.5,97.5C 209.989,121.216 204.989,143.549 193.5,164.5C 192.529,166.483 191.529,168.483 190.5,170.5C 189.833,170.833 189.167,171.167 188.5,171.5C 183.86,176.806 178.86,181.806 173.5,186.5C 172.167,186.833 172.167,187.167 173.5,187.5C 173.5,188.167 173.167,188.5 172.5,188.5C 170.804,188.685 169.471,189.519 168.5,191C 164.848,191.499 161.182,191.665 157.5,191.5C 157.48,189.857 158.147,188.524 159.5,187.5C 159.376,186.893 159.043,186.56 158.5,186.5C 157.438,181.853 158.271,181.52 161,185.5C 161.195,184.181 161.028,182.847 160.5,181.5C 162.249,183.531 164.249,183.865 166.5,182.5C 169.416,181.189 171.916,181.855 174,184.5C 175.009,182.975 175.509,181.308 175.5,179.5C 177.429,179.769 179.095,179.269 180.5,178C 180.043,177.586 179.709,177.086 179.5,176.5C 183.167,172.833 186.833,169.167 190.5,165.5C 191.429,164.311 191.762,162.978 191.5,161.5C 189.282,161.386 187.282,160.72 185.5,159.5C 185.5,158.167 184.833,157.5 183.5,157.5C 181.611,156.258 179.611,156.258 177.5,157.5C 177.539,156.417 177.873,155.417 178.5,154.5C 177.675,153.614 176.675,153.281 175.5,153.5C 175.5,152.167 175.5,150.833 175.5,149.5C 176.105,147.974 177.271,146.974 179,146.5C 179.595,145.101 179.428,143.768 178.5,142.5C 180.312,139.397 181.312,136.064 181.5,132.5C 186.444,119.619 186.777,106.619 182.5,93.5C 182.517,91.4352 182.85,89.4352 183.5,87.5C 184.79,88.0577 185.623,89.0577 186,90.5C 186.708,89.6195 187.542,88.9528 188.5,88.5C 188.368,94.873 191.368,97.373 197.5,96C 201.624,91.6949 201.291,87.8615 196.5,84.5C 196.305,81.9226 196.638,79.256 197.5,76.5C 197.291,75.0055 196.624,73.8388 195.5,73C 196.931,72.5348 198.097,71.7014 199,70.5C 199.383,71.056 199.883,71.3893 200.5,71.5 Z"/></g>
<g><path style="opacity:1" fill="#eceded" d="M 192.5,87.5 C 197.159,87.0146 198.492,88.848 196.5,93C 191.728,93.8104 190.395,91.9771 192.5,87.5 Z"/></g>
<g><path style="opacity:1" fill="#faf9f1" d="M 177.5,133.5 C 177.5,132.5 177.5,131.5 177.5,130.5C 179.06,116.189 177.06,102.522 171.5,89.5C 170.167,86.8333 170.167,84.1667 171.5,81.5C 172.943,80.6649 173.943,79.3316 174.5,77.5C 175.325,81.1224 175.825,84.789 176,88.5C 176.333,88.1667 176.667,87.8333 177,87.5C 178.444,90.0546 179.611,92.7213 180.5,95.5C 181.833,106.167 181.833,116.833 180.5,127.5C 179.792,129.745 178.792,131.745 177.5,133.5 Z"/></g>
<g><path style="opacity:1" fill="#1e1e1e" d="M 101.5,103.5 C 100.167,104.833 98.8333,106.167 97.5,107.5C 97.0617,104.107 97.8951,101.107 100,98.5C 100.608,100.154 101.108,101.821 101.5,103.5 Z"/></g>
<g><path style="opacity:1" fill="#222222" d="M 202.5,105.5 C 201.141,104.993 200.141,103.993 199.5,102.5C 197.929,103.975 196.595,105.642 195.5,107.5C 194.178,107.67 193.011,107.337 192,106.5C 191.192,104.421 191.359,102.421 192.5,100.5C 193.167,101.5 193.833,102.5 194.5,103.5C 195.762,101.619 197.429,100.286 199.5,99.5C 201.975,100.677 202.975,102.677 202.5,105.5 Z"/></g>
<g><path style="opacity:1" fill="#202020" d="M 19.5,100.5 C 22.8432,102.501 26.5099,103.501 30.5,103.5C 30.5,104.5 30.5,105.5 30.5,106.5C 28.3037,106.41 26.137,106.077 24,105.5C 22.6349,105.844 21.4682,106.511 20.5,107.5C 19.6143,106.675 19.281,105.675 19.5,104.5C 19.5,103.167 19.5,101.833 19.5,100.5 Z"/></g>
<g><path style="opacity:1" fill="#6c6c6c" d="M 124.5,100.5 C 125.586,100.62 126.253,101.287 126.5,102.5C 126.154,103.849 125.821,105.183 125.5,106.5C 124.833,106.5 124.5,106.167 124.5,105.5C 123.001,104.506 121.334,104.506 119.5,105.5C 121.121,103.883 123.121,102.716 125.5,102C 124.944,101.617 124.611,101.117 124.5,100.5 Z"/></g>
<g><path style="opacity:1" fill="#c8c8c8" d="M 202.5,105.5 C 200.924,106.283 199.591,107.45 198.5,109C 199.416,109.278 200.082,109.778 200.5,110.5C 197.5,110.5 194.5,110.5 191.5,110.5C 193.292,109.691 195.292,109.191 197.5,109C 196.584,108.722 195.918,108.222 195.5,107.5C 196.595,105.642 197.929,103.975 199.5,102.5C 200.141,103.993 201.141,104.993 202.5,105.5 Z"/></g>
<g><path style="opacity:1" fill="#d0d0d0" d="M 124.5,105.5 C 122.876,109.446 121.209,109.446 119.5,105.5C 121.334,104.506 123.001,104.506 124.5,105.5 Z"/></g>
<g><path style="opacity:1" fill="#aacd49" d="M 171.5,89.5 C 177.06,102.522 179.06,116.189 177.5,130.5C 175.958,131.301 174.292,131.634 172.5,131.5C 172.824,124.646 172.491,117.979 171.5,111.5C 170.538,106.141 169.038,100.807 167,95.5C 161.876,82.8902 153.043,74.2235 140.5,69.5C 140.167,69.5 139.833,69.5 139.5,69.5C 136.66,67.0849 133.327,65.7516 129.5,65.5C 129.167,65.5 128.833,65.5 128.5,65.5C 128.5,64.1667 128.5,62.8333 128.5,61.5C 132.182,61.3347 135.848,61.5014 139.5,62C 144.575,64.4737 149.575,67.1404 154.5,70C 160.491,76.351 166.158,82.851 171.5,89.5 Z"/></g>
<g><path style="opacity:1" fill="#141414" d="M 21.5,118.5 C 21.1667,118.5 20.8333,118.5 20.5,118.5C 18.9521,115.742 19.2854,113.242 21.5,111C 24.4816,110.502 27.4816,110.335 30.5,110.5C 30.5,111.5 30.5,112.5 30.5,113.5C 28.5082,113.328 26.8415,113.995 25.5,115.5C 24.4763,114.147 23.143,113.48 21.5,113.5C 21.5,114.5 21.5,115.5 21.5,116.5C 33.5,117.167 33.5,117.833 21.5,118.5 Z"/></g>
<g><path style="opacity:1" fill="#242424" d="M 109.5,86.5 C 109.708,88.9201 109.374,91.2534 108.5,93.5C 110.476,97.5752 112.143,101.742 113.5,106C 114.833,106.667 116.167,106.667 117.5,106C 118.634,104.984 118.301,104.317 116.5,104C 119.09,102.555 121.757,101.388 124.5,100.5C 124.611,101.117 124.944,101.617 125.5,102C 123.121,102.716 121.121,103.883 119.5,105.5C 121.209,109.446 122.876,109.446 124.5,105.5C 124.5,106.167 124.833,106.5 125.5,106.5C 125.989,107.995 126.655,109.329 127.5,110.5C 128.301,112.042 128.634,113.708 128.5,115.5C 125.552,115.223 122.719,115.556 120,116.5C 117.2,115.872 114.533,114.872 112,113.5C 111.617,114.056 111.117,114.389 110.5,114.5C 109.051,112.836 107.051,112.002 104.5,112C 105.448,111.517 106.448,111.351 107.5,111.5C 107.5,110.5 107.5,109.5 107.5,108.5C 111.236,108.34 111.236,107.507 107.5,106C 109.578,104.73 109.912,103.23 108.5,101.5C 105.991,99.5778 104.657,96.9111 104.5,93.5C 105.752,91.9991 106.752,90.3325 107.5,88.5C 108.167,87.8333 108.833,87.1667 109.5,86.5 Z"/></g>
<g><path style="opacity:1" fill="#b1d4be" d="M 182.5,93.5 C 186.777,106.619 186.444,119.619 181.5,132.5C 182.662,119.478 182.995,106.478 182.5,93.5 Z"/></g>
<g><path style="opacity:1" fill="#171717" d="M 191.5,110.5 C 194.5,110.5 197.5,110.5 200.5,110.5C 202.441,112.011 202.941,114.011 202,116.5C 199.378,119.239 197.212,118.905 195.5,115.5C 195.833,114.833 196.167,114.167 196.5,113.5C 197.216,114.311 198.05,114.978 199,115.5C 200.257,115.15 200.591,114.483 200,113.5C 196.746,113.162 193.912,112.162 191.5,110.5 Z"/></g>
<g><path style="opacity:1" fill="#6c6c6c" d="M 110.5,114.5 C 109.833,115.5 109.167,116.5 108.5,117.5C 107.883,117.389 107.383,117.056 107,116.5C 105.649,118.019 104.149,119.352 102.5,120.5C 103.025,121.192 103.692,121.692 104.5,122C 103.23,122.9 102.23,124.066 101.5,125.5C 100.289,124.726 100.289,123.893 101.5,123C 100.756,121.961 99.7562,121.461 98.5,121.5C 100.764,119.686 103.097,117.853 105.5,116C 107.025,114.991 108.692,114.491 110.5,114.5 Z"/></g>
<g><path style="opacity:1" fill="#818382" d="M 147.5,127.5 C 146.833,127.5 146.167,127.5 145.5,127.5C 145.027,126.094 144.027,125.427 142.5,125.5C 141.583,125.494 141.083,126.494 141,128.5C 140.739,124.294 140.239,120.127 139.5,116C 139.833,115.5 140.167,115 140.5,114.5C 142.576,116.288 144.743,117.954 147,119.5C 147.497,122.146 147.664,124.813 147.5,127.5 Z"/></g>
<g><path style="opacity:1" fill="#a7a7a7" d="M 127.5,110.5 C 129.441,110.869 131.275,111.536 133,112.5C 133.333,112.167 133.667,111.833 134,111.5C 135.591,113.178 137.091,114.178 138.5,114.5C 137.964,117.105 137.798,119.772 138,122.5C 137.667,121.5 137.333,120.5 137,119.5C 136.489,121.878 135.822,124.212 135,126.5C 132.91,122.221 133.077,118.054 135.5,114C 135.167,113.833 134.833,113.667 134.5,113.5C 133.402,117.361 132.569,117.361 132,113.5C 131.505,115.473 131.338,117.473 131.5,119.5C 131.206,121.276 131.04,123.276 131,125.5C 127.605,123.138 127.105,120.472 129.5,117.5C 129.137,116.817 128.804,116.15 128.5,115.5C 128.634,113.708 128.301,112.042 127.5,110.5 Z"/></g>
<g><path style="opacity:1" fill="#656565" d="M 108.5,117.5 C 110.662,117.897 111.995,119.231 112.5,121.5C 115.028,120.483 115.028,119.316 112.5,118C 113.167,117.333 113.833,117.333 114.5,118C 116.689,119.911 117.356,122.077 116.5,124.5C 113.184,123.395 110.184,121.729 107.5,119.5C 107.833,118.833 108.167,118.167 108.5,117.5 Z"/></g>
<g><path style="opacity:1" fill="#c7dcc9" d="M 38.5,109.5 C 39.3714,115.524 40.3714,121.524 41.5,127.5C 40.6236,127.369 39.9569,127.702 39.5,128.5C 40.4847,130.098 40.6514,131.765 40,133.5C 39.6264,131.509 38.793,129.842 37.5,128.5C 36.7622,120.841 36.5956,113.174 37,105.5C 37.21,107.058 37.71,108.391 38.5,109.5 Z"/></g>
<g><path style="opacity:1" fill="#e8e8e8" d="M 107.5,119.5 C 110.184,121.729 113.184,123.395 116.5,124.5C 116.804,125.15 117.137,125.817 117.5,126.5C 115.922,127.298 114.256,127.798 112.5,128C 114.435,129.238 116.435,129.738 118.5,129.5C 117.579,131.756 115.912,132.756 113.5,132.5C 110.785,129.786 108.451,126.786 106.5,123.5C 105.588,122.262 105.421,120.928 106,119.5C 106.779,122.097 107.279,122.097 107.5,119.5 Z"/></g>
<g><path style="opacity:1" fill="#8f8f8f" d="M 128.5,115.5 C 128.804,116.15 129.137,116.817 129.5,117.5C 127.105,120.472 127.605,123.138 131,125.5C 131.04,123.276 131.206,121.276 131.5,119.5C 132.978,124.042 133.478,128.709 133,133.5C 129.268,132.312 125.768,130.645 122.5,128.5C 121.463,131.537 119.463,133.537 116.5,134.5C 115.29,134.068 114.29,133.401 113.5,132.5C 115.912,132.756 117.579,131.756 118.5,129.5C 116.435,129.738 114.435,129.238 112.5,128C 114.256,127.798 115.922,127.298 117.5,126.5C 117.137,125.817 116.804,125.15 116.5,124.5C 117.356,122.077 116.689,119.911 114.5,118C 113.833,117.333 113.167,117.333 112.5,118C 115.028,119.316 115.028,120.483 112.5,121.5C 111.995,119.231 110.662,117.897 108.5,117.5C 109.167,116.5 109.833,115.5 110.5,114.5C 111.117,114.389 111.617,114.056 112,113.5C 114.533,114.872 117.2,115.872 120,116.5C 122.719,115.556 125.552,115.223 128.5,115.5 Z"/></g>
<g><path style="opacity:1" fill="#a8cc48" d="M 167.5,135.5 C 165.195,145.929 160.695,155.262 154,163.5C 151.441,166.12 148.941,166.12 146.5,163.5C 147.635,161.787 149.302,161.12 151.5,161.5C 151.944,156.941 153.777,152.941 157,149.5C 161.159,139.212 163.159,128.545 163,117.5C 162.741,113.11 161.574,109.11 159.5,105.5C 159.477,100.757 157.477,97.4232 153.5,95.5C 153.708,91.9152 152.375,89.2485 149.5,87.5C 148.032,85.0842 147.365,82.4175 147.5,79.5C 149.467,79.2606 151.301,79.5939 153,80.5C 166.029,96.5906 170.862,114.924 167.5,135.5 Z"/></g>
<g><path style="opacity:1" fill="#191919" d="M 191.5,121.5 C 194.86,121.616 198.193,121.949 201.5,122.5C 201.649,123.552 201.483,124.552 201,125.5C 197.513,124.761 194.013,123.927 190.5,123C 191.056,122.617 191.389,122.117 191.5,121.5 Z"/></g>
<g><path style="opacity:1" fill="#a3b5ad" d="M 37.5,44.5 C 37.8333,44.5 38.1667,44.5 38.5,44.5C 12.8264,76.8854 7.15977,112.552 21.5,151.5C 15.0611,139.066 12.0611,125.733 12.5,111.5C 12.449,98.0446 14.7823,85.0446 19.5,72.5C 21.0075,70.8185 22.0075,68.8185 22.5,66.5C 25.4345,60.9028 28.7678,55.5695 32.5,50.5C 34.137,48.5248 35.8036,46.5248 37.5,44.5 Z"/></g>
<g><path style="opacity:1" fill="#a9cb4a" d="M 67.5,144.5 C 69.1829,146.514 71.1829,148.18 73.5,149.5C 81.6739,155.738 91.0072,158.904 101.5,159C 103.107,160.049 103.773,161.549 103.5,163.5C 97.8236,163.666 92.1569,163.499 86.5,163C 81.5903,161.499 76.9237,159.499 72.5,157C 71.6634,155.989 71.33,154.822 71.5,153.5C 67.2209,153.029 63.8876,151.029 61.5,147.5C 59.9217,146.934 58.5884,145.934 57.5,144.5C 53.8881,138.935 50.5548,133.268 47.5,127.5C 45.0843,119.038 44.0843,110.371 44.5,101.5C 46.451,101.227 47.951,101.893 49,103.5C 49.6255,114.472 52.4589,124.806 57.5,134.5C 60.591,138.11 63.9243,141.444 67.5,144.5 Z"/></g>
<g><path style="opacity:1" fill="#e3f3b8" d="M 51.5,87.5 C 48.6752,107.722 53.6752,125.555 66.5,141C 68.1341,141.494 69.8008,141.66 71.5,141.5C 71.5,140.167 71.5,138.833 71.5,137.5C 72.4614,139.265 72.7947,141.265 72.5,143.5C 70.5853,143.216 68.9187,143.549 67.5,144.5C 63.9243,141.444 60.591,138.11 57.5,134.5C 52.4589,124.806 49.6255,114.472 49,103.5C 47.951,101.893 46.451,101.227 44.5,101.5C 44.0843,110.371 45.0843,119.038 47.5,127.5C 45.7531,126.019 44.5864,124.019 44,121.5C 43.5003,114.174 43.3337,106.841 43.5,99.5C 45.5,99.5 47.5,99.5 49.5,99.5C 49.8509,95.3164 50.5176,91.3164 51.5,87.5 Z"/></g>
<g><path style="opacity:1" fill="#848484" d="M 83.5,124.5 C 84.1896,128.144 82.8563,131.144 79.5,133.5C 78.659,129.425 79.9924,126.425 83.5,124.5 Z"/></g>
<g><path style="opacity:1" fill="#555555" d="M 106.5,123.5 C 108.451,126.786 110.785,129.786 113.5,132.5C 114.29,133.401 115.29,134.068 116.5,134.5C 116.5,134.833 116.5,135.167 116.5,135.5C 116.678,136.695 117.011,137.862 117.5,139C 117.15,140.257 116.483,140.591 115.5,140C 115.833,139.667 116.167,139.333 116.5,139C 115.95,137.155 114.95,135.655 113.5,134.5C 112.749,135.376 112.249,136.376 112,137.5C 111.654,132.987 109.488,129.654 105.5,127.5C 104.914,127.709 104.414,128.043 104,128.5C 104.148,127.175 103.982,126.008 103.5,125C 104.244,123.961 105.244,123.461 106.5,123.5 Z"/></g>
<g><path style="opacity:1" fill="#1e1d1d" d="M 21.5,132.5 C 21.5,131.5 21.5,130.5 21.5,129.5C 22.5,129.5 23.5,129.5 24.5,129.5C 24.5,128.5 24.5,127.5 24.5,126.5C 23.1779,126.33 22.0113,126.663 21,127.5C 20.0902,125.055 20.9236,123.722 23.5,123.5C 26.1272,122.908 28.7938,122.575 31.5,122.5C 31.5,123.5 31.5,124.5 31.5,125.5C 30.1667,125.5 28.8333,125.5 27.5,125.5C 27.5,126.5 27.5,127.5 27.5,128.5C 28.8221,128.67 29.9887,128.337 31,127.5C 31.3742,128.416 31.8742,129.25 32.5,130C 28.8292,130.9 25.1625,131.734 21.5,132.5 Z"/></g>
<g><path style="opacity:1" fill="#8b8b8b" d="M 98.5,121.5 C 99.7562,121.461 100.756,121.961 101.5,123C 100.289,123.893 100.289,124.726 101.5,125.5C 102.23,124.066 103.23,122.9 104.5,122C 103.692,121.692 103.025,121.192 102.5,120.5C 104.149,119.352 105.649,118.019 107,116.5C 107.383,117.056 107.883,117.389 108.5,117.5C 108.167,118.167 107.833,118.833 107.5,119.5C 107.279,122.097 106.779,122.097 106,119.5C 105.421,120.928 105.588,122.262 106.5,123.5C 105.244,123.461 104.244,123.961 103.5,125C 103.982,126.008 104.148,127.175 104,128.5C 104.414,128.043 104.914,127.709 105.5,127.5C 109.488,129.654 111.654,132.987 112,137.5C 112.249,136.376 112.749,135.376 113.5,134.5C 114.95,135.655 115.95,137.155 116.5,139C 116.167,139.333 115.833,139.667 115.5,140C 116.483,140.591 117.15,140.257 117.5,139C 117.011,137.862 116.678,136.695 116.5,135.5C 119.464,137.962 122.297,140.629 125,143.5C 125.105,139.63 125.938,135.963 127.5,132.5C 127.756,137.273 127.756,141.939 127.5,146.5C 127.043,147.298 126.376,147.631 125.5,147.5C 121.818,147.665 118.152,147.499 114.5,147C 113.174,144.842 111.507,143.008 109.5,141.5C 108.702,143.078 108.202,144.744 108,146.5C 106.951,147.517 105.784,147.684 104.5,147C 103.597,141.892 102.763,136.725 102,131.5C 100.649,129.981 99.1487,128.648 97.5,127.5C 96.8302,129.291 96.1635,130.958 95.5,132.5C 95.631,131.761 95.4643,131.094 95,130.5C 91.9441,133.066 88.7775,135.4 85.5,137.5C 84.6143,136.675 84.281,135.675 84.5,134.5C 84.6811,131.229 84.6811,127.563 84.5,123.5C 86.0765,120.688 87.9098,118.022 90,115.5C 90.6172,116.449 90.4506,117.282 89.5,118C 91.6667,118.833 93.1667,120.333 94,122.5C 94.3333,122.167 94.6667,121.833 95,121.5C 96.3928,124.125 97.5595,124.125 98.5,121.5 Z"/></g>
<g><path style="opacity:1" fill="#e7f3bd" d="M 159.5,105.5 C 161.574,109.11 162.741,113.11 163,117.5C 163.159,128.545 161.159,139.212 157,149.5C 153.777,152.941 151.944,156.941 151.5,161.5C 149.302,161.12 147.635,161.787 146.5,163.5C 145.5,163.5 144.5,163.5 143.5,163.5C 144.105,161.974 145.271,160.974 147,160.5C 148.751,157.748 149.584,154.748 149.5,151.5C 150.833,151.5 152.167,151.5 153.5,151.5C 155.029,146.098 156.863,140.765 159,135.5C 159.499,129.509 159.666,123.509 159.5,117.5C 158.167,117.5 156.833,117.5 155.5,117.5C 156.265,115.071 157.931,113.738 160.5,113.5C 160.167,110.833 159.833,108.167 159.5,105.5 Z"/></g>
<g><path style="opacity:1" fill="#cbde99" d="M 171.5,111.5 C 172.491,117.979 172.824,124.646 172.5,131.5C 174.292,131.634 175.958,131.301 177.5,130.5C 177.5,131.5 177.5,132.5 177.5,133.5C 177.167,133.5 176.833,133.5 176.5,133.5C 174.833,133.5 173.167,133.5 171.5,133.5C 171.5,126.167 171.5,118.833 171.5,111.5 Z"/></g>
<g><path style="opacity:1" fill="#1d1a19" d="M 189.5,128.5 C 192.872,129.449 196.205,129.449 199.5,128.5C 200.639,130.97 200.306,133.303 198.5,135.5C 197.614,134.675 197.281,133.675 197.5,132.5C 194.006,132.468 191.339,131.135 189.5,128.5 Z"/></g>
<g><path style="opacity:1" fill="#1c1c1c" d="M 83.5,124.5 C 83.5,123.833 83.8333,123.5 84.5,123.5C 84.6811,127.563 84.6811,131.229 84.5,134.5C 82.5853,134.784 80.9187,134.451 79.5,133.5C 82.8563,131.144 84.1896,128.144 83.5,124.5 Z"/></g>
<g><path style="opacity:1" fill="#bebfb6" d="M 145.5,127.5 C 146.167,127.5 146.833,127.5 147.5,127.5C 147.5,134.167 147.5,140.833 147.5,147.5C 147.672,148.492 147.338,149.158 146.5,149.5C 145.57,142.223 145.236,134.89 145.5,127.5 Z"/></g>
<g><path style="opacity:1" fill="#f4f9f1" d="M 171.5,133.5 C 173.167,133.5 174.833,133.5 176.5,133.5C 177.219,135.764 177.552,138.097 177.5,140.5C 175.691,145.452 173.357,150.119 170.5,154.5C 170.667,154.833 170.833,155.167 171,155.5C 172.277,153.253 173.777,151.253 175.5,149.5C 175.5,150.833 175.5,152.167 175.5,153.5C 176.675,153.281 177.675,153.614 178.5,154.5C 177.873,155.417 177.539,156.417 177.5,157.5C 177.5,158.167 177.5,158.833 177.5,159.5C 176.057,158.665 175.057,157.332 174.5,155.5C 171.828,157.425 170.828,160.092 171.5,163.5C 165.98,163.151 163.646,165.817 164.5,171.5C 162.5,171.5 160.5,171.5 158.5,171.5C 158.5,172.833 158.5,174.167 158.5,175.5C 157.5,175.5 156.5,175.5 155.5,175.5C 155.36,177.124 156.027,178.29 157.5,179C 156.101,179.595 154.768,179.428 153.5,178.5C 152.77,179.934 151.77,181.1 150.5,182C 144.625,181.773 139.959,183.94 136.5,188.5C 136.158,189.338 135.492,189.672 134.5,189.5C 131.428,189.817 128.428,189.484 125.5,188.5C 126.853,187.476 127.52,186.143 127.5,184.5C 136.348,182.909 144.348,179.409 151.5,174C 143.956,177.925 135.956,181.091 127.5,183.5C 126.322,182.001 124.655,181.001 122.5,180.5C 123.612,179.735 124.279,178.735 124.5,177.5C 126.58,176.956 128.58,176.122 130.5,175C 134.886,171.078 139.219,167.245 143.5,163.5C 144.5,163.5 145.5,163.5 146.5,163.5C 148.941,166.12 151.441,166.12 154,163.5C 160.695,155.262 165.195,145.929 167.5,135.5C 168.833,134.833 170.167,134.167 171.5,133.5 Z"/></g>
<g><path style="opacity:1" fill="#979696" d="M 141.5,135.5 C 142.23,141.753 141.896,144.419 140.5,143.5C 138.694,122.263 137.194,122.263 136,143.5C 135.242,137.109 135.576,130.776 137,124.5C 137.667,123.167 138.333,123.167 139,124.5C 139.407,128.285 140.241,131.952 141.5,135.5 Z"/></g>
<g><path style="opacity:1" fill="#aaa9a9" d="M 95.5,132.5 C 95.6659,137.511 95.4993,142.511 95,147.5C 94.5161,145.822 93.6828,145.156 92.5,145.5C 93.7279,143.99 93.7279,142.49 92.5,141C 93.8676,138.196 94.8676,135.362 95.5,132.5 Z"/></g>
<g><path style="opacity:1" fill="#201d1e" d="M 187.5,134.5 C 190.718,135.692 193.885,137.025 197,138.5C 198.33,143.498 196.496,145.664 191.5,145C 183.635,142.431 183.635,140.931 191.5,140.5C 192.623,142.289 193.956,142.622 195.5,141.5C 193.65,139.428 191.317,138.095 188.5,137.5C 187.614,136.675 187.281,135.675 187.5,134.5 Z"/></g>
<g><path style="opacity:1" fill="#f2f7f5" d="M 45.5,45.5 C 44.5,46.1667 43.5,46.8333 42.5,47.5C 41.1266,47.3433 39.7932,47.51 38.5,48C 38.8333,48.3333 39.1667,48.6667 39.5,49C 38.8095,50.0674 38.3095,51.2341 38,52.5C 35.8424,53.0502 35.3424,54.0502 36.5,55.5C 36.1667,56.1667 35.8333,56.8333 35.5,57.5C 34.7171,59.3432 34.0505,61.3432 33.5,63.5C 32.6086,64.5896 31.6086,64.5896 30.5,63.5C 29.6143,64.325 29.281,65.325 29.5,66.5C 29.5,66.8333 29.5,67.1667 29.5,67.5C 28.7321,68.2625 28.2321,69.2625 28,70.5C 27.6667,69.8333 27.3333,69.1667 27,68.5C 25.5635,70.5707 26.0635,72.404 28.5,74C 27.244,74.4169 26.5774,75.2502 26.5,76.5C 24.3605,78.8814 24.0271,81.5481 25.5,84.5C 24.4415,85.6002 23.6082,86.9336 23,88.5C 22.6667,88.1667 22.3333,87.8333 22,87.5C 21.5172,88.448 21.3505,89.448 21.5,90.5C 20.3132,92.9752 20.6465,95.3086 22.5,97.5C 21.9002,98.8999 20.9002,99.8999 19.5,100.5C 19.5,101.833 19.5,103.167 19.5,104.5C 16.5301,105.822 15.1967,108.156 15.5,111.5C 15.2501,115.244 16.9167,117.578 20.5,118.5C 20.8333,118.5 21.1667,118.5 21.5,118.5C 23.3885,119.322 25.3885,120.155 27.5,121C 25.9336,121.608 24.6002,122.442 23.5,123.5C 20.9236,123.722 20.0902,125.055 21,127.5C 22.0113,126.663 23.1779,126.33 24.5,126.5C 24.5,127.5 24.5,128.5 24.5,129.5C 23.5,129.5 22.5,129.5 21.5,129.5C 21.5,130.5 21.5,131.5 21.5,132.5C 22.0654,134.952 22.7321,137.285 23.5,139.5C 28.3155,138.435 28.6488,139.602 24.5,143C 25.1079,143.87 25.9412,144.37 27,144.5C 30.6571,143.933 33.4904,142.266 35.5,139.5C 34.9524,138.312 34.6191,137.145 34.5,136C 35.8688,134.281 36.8688,132.448 37.5,130.5C 37.7845,132.877 37.7845,135.044 37.5,137C 39.915,138.465 40.915,140.632 40.5,143.5C 41.8333,143.5 43.1667,143.5 44.5,143.5C 44.3832,145.484 45.0499,147.15 46.5,148.5C 46.2907,149.086 45.9574,149.586 45.5,150C 48.6711,152.677 51.3378,155.844 53.5,159.5C 53.1543,160.696 52.6543,160.696 52,159.5C 51.3333,160.5 51.3333,161.5 52,162.5C 54.8783,163.689 57.7117,165.022 60.5,166.5C 61.3857,167.325 61.719,168.325 61.5,169.5C 64.6421,169.799 66.8088,171.466 68,174.5C 68.3333,174.167 68.6667,173.833 69,173.5C 71.9212,175.712 75.0879,177.545 78.5,179C 79.2524,179.671 79.5858,180.504 79.5,181.5C 77.8008,181.66 76.1341,181.494 74.5,181C 71.4355,177.636 69.1021,178.136 67.5,182.5C 64.6792,181.926 62.3459,180.592 60.5,178.5C 60.1583,177.662 59.4916,177.328 58.5,177.5C 58.6716,176.508 58.3382,175.842 57.5,175.5C 57.6107,174.883 57.944,174.383 58.5,174C 56.992,172.493 55.6587,170.827 54.5,169C 54.8333,168.667 55.1667,168.333 55.5,168C 54.552,167.517 53.552,167.351 52.5,167.5C 52.6713,164.203 52.0046,163.869 50.5,166.5C 50.8627,167.183 51.1961,167.85 51.5,168.5C 50.5,170.167 49.1667,171.5 47.5,172.5C 44.9338,169.93 44.9338,167.263 47.5,164.5C 47.1543,163.304 46.6543,163.304 46,164.5C 45.502,161.518 45.3354,158.518 45.5,155.5C 41.8333,155.5 38.1667,155.5 34.5,155.5C 33.3274,158.527 33.9941,161.194 36.5,163.5C 36.8333,163.5 37.1667,163.5 37.5,163.5C 41.118,166.372 40.7846,169.039 36.5,171.5C 35.1779,171.67 34.0113,171.337 33,170.5C 28.6383,164.436 24.805,158.102 21.5,151.5C 7.15977,112.552 12.8264,76.8854 38.5,44.5C 39.8221,44.67 40.9887,44.3366 42,43.5C 42.9745,45.8776 43.6411,45.5443 44,42.5C 44.6667,43.8333 45.3333,43.8333 46,42.5C 46.4696,43.5768 46.3029,44.5768 45.5,45.5 Z"/></g>
<g><path style="opacity:1" fill="#211e1e" d="M 35.5,139.5 C 33.4904,142.266 30.6571,143.933 27,144.5C 25.9412,144.37 25.1079,143.87 24.5,143C 28.6488,139.602 28.3155,138.435 23.5,139.5C 23.5,138.5 23.5,137.5 23.5,136.5C 26.8286,136.002 29.9953,135.002 33,133.5C 32.0299,135.693 31.3632,138.027 31,140.5C 32.3561,139.62 33.8561,139.286 35.5,139.5 Z"/></g>
<g><path style="opacity:1" fill="#f9fbf5" d="M 142.5,125.5 C 144.027,125.427 145.027,126.094 145.5,127.5C 145.236,134.89 145.57,142.223 146.5,149.5C 145.096,151.255 144.096,153.255 143.5,155.5C 142.022,154.552 141.022,153.219 140.5,151.5C 138.801,151.34 137.134,151.506 135.5,152C 129.056,157.711 122.056,162.211 114.5,165.5C 110.351,166.08 106.684,165.414 103.5,163.5C 103.773,161.549 103.107,160.049 101.5,159C 91.0072,158.904 81.6739,155.738 73.5,149.5C 79.8712,148.272 86.2046,146.939 92.5,145.5C 93.6828,145.156 94.5161,145.822 95,147.5C 95.4993,142.511 95.6659,137.511 95.5,132.5C 96.1635,130.958 96.8302,129.291 97.5,127.5C 99.1487,128.648 100.649,129.981 102,131.5C 102.763,136.725 103.597,141.892 104.5,147C 105.784,147.684 106.951,147.517 108,146.5C 108.202,144.744 108.702,143.078 109.5,141.5C 111.507,143.008 113.174,144.842 114.5,147C 118.152,147.499 121.818,147.665 125.5,147.5C 125.47,148.497 125.97,149.164 127,149.5C 131.681,147.778 136.181,145.778 140.5,143.5C 141.896,144.419 142.23,141.753 141.5,135.5C 142.479,132.375 142.813,129.042 142.5,125.5 Z"/></g>
<g><path style="opacity:0.671" fill="#a4bcb1" d="M 208.5,97.5 C 210.872,117.267 208.039,136.267 200,154.5C 198.058,158.069 195.892,161.402 193.5,164.5C 204.989,143.549 209.989,121.216 208.5,97.5 Z"/></g>
<g><path style="opacity:1" fill="#1d1d18" d="M 183.5,146.5 C 187.656,146.578 190.989,148.245 193.5,151.5C 193,151.833 192.5,152.167 192,152.5C 189.845,151.756 187.845,150.756 186,149.5C 185.05,150.022 184.216,150.689 183.5,151.5C 182.566,149.905 182.566,148.239 183.5,146.5 Z"/></g>
<g><path style="opacity:1" fill="#afcbba" d="M 181.5,132.5 C 181.312,136.064 180.312,139.397 178.5,142.5C 179.428,143.768 179.595,145.101 179,146.5C 177.271,146.974 176.105,147.974 175.5,149.5C 173.777,151.253 172.277,153.253 171,155.5C 170.833,155.167 170.667,154.833 170.5,154.5C 173.357,150.119 175.691,145.452 177.5,140.5C 179.025,137.921 180.359,135.254 181.5,132.5 Z"/></g>
<g><path style="opacity:1" fill="#211e20" d="M 34.5,144.5 C 35.5,144.5 36.5,144.5 37.5,144.5C 38.8109,149.703 36.9776,153.036 32,154.5C 28.4452,153.379 27.4452,151.379 29,148.5C 31.3586,152.504 33.5253,152.337 35.5,148C 35.0109,146.862 34.6775,145.695 34.5,144.5 Z"/></g>
<g><path style="opacity:1" fill="#b3cb60" d="M 61.5,150.5 C 63.1667,152.167 64.8333,153.833 66.5,155.5C 65.5,155.5 64.5,155.5 63.5,155.5C 63.5,156.833 63.5,158.167 63.5,159.5C 60.4653,158.822 58.7986,156.822 58.5,153.5C 58.8684,151.825 59.8684,150.825 61.5,150.5 Z"/></g>
<g><path style="opacity:1" fill="#a9cc47" d="M 140.5,151.5 C 140.643,153.262 140.309,154.929 139.5,156.5C 129.585,166.456 117.585,172.123 103.5,173.5C 98.1563,173.666 92.8229,173.499 87.5,173C 78.1181,170.562 70.1181,166.062 63.5,159.5C 63.5,158.167 63.5,156.833 63.5,155.5C 64.5,155.5 65.5,155.5 66.5,155.5C 72.6415,159.342 78.9749,163.008 85.5,166.5C 90.3333,166.833 95.1667,167.167 100,167.5C 105.216,167.494 110.049,166.827 114.5,165.5C 122.056,162.211 129.056,157.711 135.5,152C 137.134,151.506 138.801,151.34 140.5,151.5 Z"/></g>
<g><path style="opacity:1" fill="#bd312b" d="M 183.5,157.5 C 184.833,157.5 185.5,158.167 185.5,159.5C 184.526,163.009 182.193,164.176 178.5,163C 177.663,161.989 177.33,160.822 177.5,159.5C 177.5,158.833 177.5,158.167 177.5,157.5C 179.611,156.258 181.611,156.258 183.5,157.5 Z"/></g>
<g><path style="opacity:1" fill="#f5161c" d="M 183.5,157.5 C 183.5,158.833 183.5,160.167 183.5,161.5C 181.712,161.785 180.045,161.452 178.5,160.5C 179.375,158.227 181.042,157.227 183.5,157.5 Z"/></g>
<g><path style="opacity:0.412" fill="#a4b8b0" d="M 21.5,151.5 C 24.805,158.102 28.6383,164.436 33,170.5C 34.0113,171.337 35.1779,171.67 36.5,171.5C 36.1667,172.167 35.8333,172.833 35.5,173.5C 35.5,173.833 35.5,174.167 35.5,174.5C 34.5178,173.859 33.5178,173.193 32.5,172.5C 27.5157,166.184 23.8491,159.184 21.5,151.5 Z"/></g>
<g><path style="opacity:1" fill="#e5f1bf" d="M 61.5,147.5 C 63.8876,151.029 67.2209,153.029 71.5,153.5C 71.33,154.822 71.6634,155.989 72.5,157C 76.9237,159.499 81.5903,161.499 86.5,163C 92.1569,163.499 97.8236,163.666 103.5,163.5C 106.684,165.414 110.351,166.08 114.5,165.5C 110.049,166.827 105.216,167.494 100,167.5C 95.1667,167.167 90.3333,166.833 85.5,166.5C 78.9749,163.008 72.6415,159.342 66.5,155.5C 64.8333,153.833 63.1667,152.167 61.5,150.5C 61.5,149.5 61.5,148.5 61.5,147.5 Z"/></g>
<g><path style="opacity:1" fill="#e3f2c2" d="M 140.5,151.5 C 141.022,153.219 142.022,154.552 143.5,155.5C 139.09,160.094 134.09,164.261 128.5,168C 127.663,169.011 127.33,170.178 127.5,171.5C 119.64,173.254 111.64,174.588 103.5,175.5C 103.5,174.833 103.5,174.167 103.5,173.5C 117.585,172.123 129.585,166.456 139.5,156.5C 140.309,154.929 140.643,153.262 140.5,151.5 Z"/></g>
<g><path style="opacity:0.165" fill="#cafae5" d="M 190.5,170.5 C 191.833,171.167 191.833,171.167 190.5,170.5 Z"/></g>
<g><path style="opacity:0.016" fill="#ddfef2" d="M 31.5,173.5 C 32.8333,174.167 32.8333,174.167 31.5,173.5 Z"/></g>
<g><path style="opacity:1" fill="#aacb4b" d="M 155.5,117.5 C 156.833,117.5 158.167,117.5 159.5,117.5C 159.666,123.509 159.499,129.509 159,135.5C 156.863,140.765 155.029,146.098 153.5,151.5C 152.167,151.5 150.833,151.5 149.5,151.5C 149.584,154.748 148.751,157.748 147,160.5C 145.271,160.974 144.105,161.974 143.5,163.5C 139.219,167.245 134.886,171.078 130.5,175C 128.58,176.122 126.58,176.956 124.5,177.5C 121.129,178.323 117.796,179.489 114.5,181C 110.167,181.667 105.833,181.667 101.5,181C 100.091,178.391 100.758,176.558 103.5,175.5C 111.64,174.588 119.64,173.254 127.5,171.5C 127.33,170.178 127.663,169.011 128.5,168C 134.09,164.261 139.09,160.094 143.5,155.5C 144.096,153.255 145.096,151.255 146.5,149.5C 147.338,149.158 147.672,148.492 147.5,147.5C 150.111,143.939 151.944,139.939 153,135.5C 153.672,129.455 154.505,123.455 155.5,117.5 Z"/></g>
<g><path style="opacity:1" fill="#f3f3f3" d="M 47.5,172.5 C 47.3505,173.552 47.5172,174.552 48,175.5C 49.3957,173.473 51.0624,173.14 53,174.5C 53.3114,173.258 52.8114,172.258 51.5,171.5C 51.9767,170.522 52.6433,169.689 53.5,169C 52.9056,168.536 52.2389,168.369 51.5,168.5C 51.1961,167.85 50.8627,167.183 50.5,166.5C 52.0046,163.869 52.6713,164.203 52.5,167.5C 53.552,167.351 54.552,167.517 55.5,168C 55.1667,168.333 54.8333,168.667 54.5,169C 55.6587,170.827 56.992,172.493 58.5,174C 57.944,174.383 57.6107,174.883 57.5,175.5C 56.8826,175.389 56.3826,175.056 56,174.5C 54.4708,175.729 53.3041,177.229 52.5,179C 54.0761,178.848 55.4095,178.015 56.5,176.5C 57.1835,176.863 57.8501,177.196 58.5,177.5C 59.4916,177.328 60.1583,177.662 60.5,178.5C 56.9286,178.408 55.7619,180.074 57,183.5C 58.3333,184.833 59.6667,184.833 61,183.5C 63.857,190.197 66.0236,189.864 67.5,182.5C 69.1021,178.136 71.4355,177.636 74.5,181C 76.1341,181.494 77.8008,181.66 79.5,181.5C 80.1667,181.5 80.5,181.167 80.5,180.5C 86.6711,182.779 93.0045,184.446 99.5,185.5C 99.9371,187.074 100.937,188.241 102.5,189C 107.5,189.333 112.5,189.667 117.5,190C 117.167,190.333 116.833,190.667 116.5,191C 118.833,191.333 121.167,191.667 123.5,192C 122.833,192.333 122.167,192.667 121.5,193C 122.416,193.278 123.082,193.778 123.5,194.5C 122.325,194.281 121.325,194.614 120.5,195.5C 121.397,195.669 122.397,196.002 123.5,196.5C 122.757,197.182 122.091,197.849 121.5,198.5C 122.802,199.357 124.135,199.857 125.5,200C 124.62,198.644 124.286,197.144 124.5,195.5C 125.338,195.158 125.672,194.492 125.5,193.5C 126.165,195.698 126.832,198.031 127.5,200.5C 127.876,197.627 127.876,194.627 127.5,191.5C 127.833,191.5 128.167,191.5 128.5,191.5C 130.373,191.483 132.373,191.149 134.5,190.5C 134.5,191.5 134.5,192.5 134.5,193.5C 136.288,193.215 137.955,193.548 139.5,194.5C 139.192,195.308 138.692,195.975 138,196.5C 137.107,195.289 136.274,195.289 135.5,196.5C 138.175,197.996 140.175,197.329 141.5,194.5C 139.851,193.012 137.851,192.012 135.5,191.5C 136.833,190.833 138.167,190.167 139.5,189.5C 138.675,188.614 137.675,188.281 136.5,188.5C 139.959,183.94 144.625,181.773 150.5,182C 151.77,181.1 152.77,179.934 153.5,178.5C 154.768,179.428 156.101,179.595 157.5,179C 156.027,178.29 155.36,177.124 155.5,175.5C 156.5,175.5 157.5,175.5 158.5,175.5C 158.5,174.167 158.5,172.833 158.5,171.5C 160.5,171.5 162.5,171.5 164.5,171.5C 163.646,165.817 165.98,163.151 171.5,163.5C 170.828,160.092 171.828,157.425 174.5,155.5C 175.057,157.332 176.057,158.665 177.5,159.5C 177.33,160.822 177.663,161.989 178.5,163C 182.193,164.176 184.526,163.009 185.5,159.5C 187.282,160.72 189.282,161.386 191.5,161.5C 191.762,162.978 191.429,164.311 190.5,165.5C 186.833,169.167 183.167,172.833 179.5,176.5C 179.709,177.086 180.043,177.586 180.5,178C 179.095,179.269 177.429,179.769 175.5,179.5C 175.509,181.308 175.009,182.975 174,184.5C 171.916,181.855 169.416,181.189 166.5,182.5C 166.225,180.158 165.392,180.158 164,182.5C 163.667,180.953 164.167,179.62 165.5,178.5C 164.112,175.921 162.612,175.921 161,178.5C 160.517,179.448 160.351,180.448 160.5,181.5C 158.281,180.46 156.281,180.96 154.5,183C 155.787,184.41 156.954,185.91 158,187.5C 158.399,187.272 158.565,186.938 158.5,186.5C 159.043,186.56 159.376,186.893 159.5,187.5C 158.147,188.524 157.48,189.857 157.5,191.5C 161.182,191.665 164.848,191.499 168.5,191C 169.471,189.519 170.804,188.685 172.5,188.5C 171.71,189.794 170.71,190.961 169.5,192C 166.26,194.091 162.926,195.924 159.5,197.5C 137.544,209.02 114.378,212.353 90,207.5C 88.9302,207.528 88.0968,207.861 87.5,208.5C 86.8333,208.5 86.5,208.167 86.5,207.5C 78.4492,204.37 70.4492,201.036 62.5,197.5C 52.6456,191.32 43.9789,183.654 36.5,174.5C 36.5,173.833 36.1667,173.5 35.5,173.5C 35.8333,172.833 36.1667,172.167 36.5,171.5C 40.7846,169.039 41.118,166.372 37.5,163.5C 41.1743,164.996 43.5076,163.83 44.5,160C 44.3158,158.624 43.6491,157.791 42.5,157.5C 37.1641,155.496 35.1641,157.496 36.5,163.5C 33.9941,161.194 33.3274,158.527 34.5,155.5C 38.1667,155.5 41.8333,155.5 45.5,155.5C 45.3354,158.518 45.502,161.518 46,164.5C 46.6543,163.304 47.1543,163.304 47.5,164.5C 44.9338,167.263 44.9338,169.93 47.5,172.5 Z"/></g>
<g><path style="opacity:1" fill="#282828" d="M 166.5,174.5 C 167.935,175.096 169.602,175.096 171.5,174.5C 171.587,177.598 171.087,177.932 170,175.5C 169.005,176.066 168.172,176.733 167.5,177.5C 165.618,176.779 165.285,175.779 166.5,174.5 Z"/></g>
<g><path style="opacity:1" fill="#aaadac" d="M 170.5,169.5 C 170.281,170.675 170.614,171.675 171.5,172.5C 172.107,172.376 172.44,172.043 172.5,171.5C 173.833,171.5 174.5,172.167 174.5,173.5C 173.56,176.328 171.727,178.328 169,179.5C 167.97,179.164 167.47,178.497 167.5,177.5C 168.172,176.733 169.005,176.066 170,175.5C 171.087,177.932 171.587,177.598 171.5,174.5C 169.602,175.096 167.935,175.096 166.5,174.5C 168.134,173.045 169.468,171.378 170.5,169.5 Z"/></g>
<g><path style="opacity:1" fill="#292828" d="M 57.5,175.5 C 58.3382,175.842 58.6716,176.508 58.5,177.5C 57.8501,177.196 57.1835,176.863 56.5,176.5C 55.4095,178.015 54.0761,178.848 52.5,179C 53.3041,177.229 54.4708,175.729 56,174.5C 56.3826,175.056 56.8826,175.389 57.5,175.5 Z"/></g>
<g><path style="opacity:1" fill="#423e3d" d="M 51.5,168.5 C 52.2389,168.369 52.9056,168.536 53.5,169C 52.6433,169.689 51.9767,170.522 51.5,171.5C 52.8114,172.258 53.3114,173.258 53,174.5C 51.0624,173.14 49.3957,173.473 48,175.5C 47.5172,174.552 47.3505,173.552 47.5,172.5C 49.1667,171.5 50.5,170.167 51.5,168.5 Z"/></g>
<g><path style="opacity:1" fill="#4a4c4b" d="M 174.5,173.5 C 174.5,172.167 173.833,171.5 172.5,171.5C 173.794,168.86 175.127,168.86 176.5,171.5C 176.145,172.522 175.478,173.189 174.5,173.5 Z"/></g>
<g><path style="opacity:1" fill="#2c2a2a" d="M 172.5,171.5 C 172.44,172.043 172.107,172.376 171.5,172.5C 170.614,171.675 170.281,170.675 170.5,169.5C 170.897,168.475 171.563,168.308 172.5,169C 171.226,169.977 171.226,170.811 172.5,171.5 Z"/></g>
<g><path style="opacity:1" fill="#ba3934" d="M 42.5,157.5 C 43.6491,157.791 44.3158,158.624 44.5,160C 43.5076,163.83 41.1743,164.996 37.5,163.5C 37.1667,163.5 36.8333,163.5 36.5,163.5C 35.1641,157.496 37.1641,155.496 42.5,157.5 Z"/></g>
<g><path style="opacity:1" fill="#f32227" d="M 42.5,157.5 C 42.5,158.833 42.5,160.167 42.5,161.5C 41.1667,161.5 39.8333,161.5 38.5,161.5C 38.5,160.167 38.5,158.833 38.5,157.5C 39.8333,157.5 41.1667,157.5 42.5,157.5 Z"/></g>
<g><path style="opacity:1" fill="#5a5c5b" d="M 166.5,182.5 C 164.249,183.865 162.249,183.531 160.5,181.5C 160.351,180.448 160.517,179.448 161,178.5C 162.612,175.921 164.112,175.921 165.5,178.5C 164.167,179.62 163.667,180.953 164,182.5C 165.392,180.158 166.225,180.158 166.5,182.5 Z"/></g>
<g><path style="opacity:1" fill="#8faba0" d="M 127.5,184.5 C 127.5,184.167 127.5,183.833 127.5,183.5C 135.956,181.091 143.956,177.925 151.5,174C 144.348,179.409 136.348,182.909 127.5,184.5 Z"/></g>
<g><path style="opacity:0.361" fill="#a1b7ad" d="M 188.5,171.5 C 188.291,172.922 187.791,174.255 187,175.5C 182.906,180.102 178.406,184.102 173.5,187.5C 173.5,187.167 173.5,186.833 173.5,186.5C 178.86,181.806 183.86,176.806 188.5,171.5 Z"/></g>
<g><path style="opacity:1" fill="#676767" d="M 60.5,178.5 C 62.3459,180.592 64.6792,181.926 67.5,182.5C 66.0236,189.864 63.857,190.197 61,183.5C 59.6667,184.833 58.3333,184.833 57,183.5C 55.7619,180.074 56.9286,178.408 60.5,178.5 Z"/></g>
<g><path style="opacity:1" fill="#eef8ef" d="M 41.5,127.5 C 43.1754,131.823 45.0087,136.157 47,140.5C 47.2117,138.22 48.0451,136.22 49.5,134.5C 47.8267,132.477 47.1601,130.144 47.5,127.5C 50.5548,133.268 53.8881,138.935 57.5,144.5C 58.5884,145.934 59.9217,146.934 61.5,147.5C 61.5,148.5 61.5,149.5 61.5,150.5C 59.8684,150.825 58.8684,151.825 58.5,153.5C 58.7986,156.822 60.4653,158.822 63.5,159.5C 70.1181,166.062 78.1181,170.562 87.5,173C 92.8229,173.499 98.1563,173.666 103.5,173.5C 103.5,174.167 103.5,174.833 103.5,175.5C 100.758,176.558 100.091,178.391 101.5,181C 105.833,181.667 110.167,181.667 114.5,181C 117.796,179.489 121.129,178.323 124.5,177.5C 124.279,178.735 123.612,179.735 122.5,180.5C 124.655,181.001 126.322,182.001 127.5,183.5C 127.5,183.833 127.5,184.167 127.5,184.5C 127.52,186.143 126.853,187.476 125.5,188.5C 128.428,189.484 131.428,189.817 134.5,189.5C 134.5,189.833 134.5,190.167 134.5,190.5C 132.373,191.149 130.373,191.483 128.5,191.5C 128.167,191.5 127.833,191.5 127.5,191.5C 126.167,191.5 125.5,192.167 125.5,193.5C 125.672,194.492 125.338,195.158 124.5,195.5C 124.5,194.833 124.167,194.5 123.5,194.5C 123.082,193.778 122.416,193.278 121.5,193C 122.167,192.667 122.833,192.333 123.5,192C 121.167,191.667 118.833,191.333 116.5,191C 116.833,190.667 117.167,190.333 117.5,190C 112.5,189.667 107.5,189.333 102.5,189C 100.937,188.241 99.9371,187.074 99.5,185.5C 107.85,186.929 116.183,186.763 124.5,185C 109.903,186.707 95.7368,184.874 82,179.5C 81.2352,179.57 80.7352,179.903 80.5,180.5C 80.5,181.167 80.1667,181.5 79.5,181.5C 79.5858,180.504 79.2524,179.671 78.5,179C 75.0879,177.545 71.9212,175.712 69,173.5C 68.6667,173.833 68.3333,174.167 68,174.5C 66.8088,171.466 64.6421,169.799 61.5,169.5C 61.719,168.325 61.3857,167.325 60.5,166.5C 57.7117,165.022 54.8783,163.689 52,162.5C 51.3333,161.5 51.3333,160.5 52,159.5C 52.6543,160.696 53.1543,160.696 53.5,159.5C 51.3378,155.844 48.6711,152.677 45.5,150C 45.9574,149.586 46.2907,149.086 46.5,148.5C 45.0499,147.15 44.3832,145.484 44.5,143.5C 43.1667,143.5 41.8333,143.5 40.5,143.5C 40.915,140.632 39.915,138.465 37.5,137C 37.7845,135.044 37.7845,132.877 37.5,130.5C 37.5,129.833 37.5,129.167 37.5,128.5C 38.793,129.842 39.6264,131.509 40,133.5C 40.6514,131.765 40.4847,130.098 39.5,128.5C 39.9569,127.702 40.6236,127.369 41.5,127.5 Z"/></g>
<g><path style="opacity:0.69" fill="#9eb2aa" d="M 35.5,174.5 C 35.8333,174.5 36.1667,174.5 36.5,174.5C 43.9789,183.654 52.6456,191.32 62.5,197.5C 51.6316,192.679 42.6316,185.012 35.5,174.5 Z"/></g>
<g><path style="opacity:1" fill="#89aa9a" d="M 80.5,180.5 C 80.7352,179.903 81.2352,179.57 82,179.5C 95.7368,184.874 109.903,186.707 124.5,185C 116.183,186.763 107.85,186.929 99.5,185.5C 93.0045,184.446 86.6711,182.779 80.5,180.5 Z"/></g>
<g><path style="opacity:1" fill="#383737" d="M 68.5,184.5 C 70.7769,185.075 72.7769,185.409 74.5,185.5C 73.3333,187.833 72.1667,190.167 71,192.5C 67.3996,190.778 66.5662,188.111 68.5,184.5 Z"/></g>
<g><path style="opacity:1" fill="#2c2d2c" d="M 160.5,181.5 C 161.028,182.847 161.195,184.181 161,185.5C 158.271,181.52 157.438,181.853 158.5,186.5C 158.565,186.938 158.399,187.272 158,187.5C 156.954,185.91 155.787,184.41 154.5,183C 156.281,180.96 158.281,180.46 160.5,181.5 Z"/></g>
<g><path style="opacity:1" fill="#313131" d="M 148.5,183.5 C 149.735,183.721 150.735,184.388 151.5,185.5C 152.192,184.975 152.692,184.308 153,183.5C 153.346,185.848 154.513,187.681 156.5,189C 155.451,189.492 154.451,189.326 153.5,188.5C 152.808,189.025 152.308,189.692 152,190.5C 150.807,188.114 149.64,185.78 148.5,183.5 Z"/></g>
<g><path style="opacity:1" fill="#eceaeb" d="M 69.5,186.5 C 71.0481,186.821 71.7148,187.821 71.5,189.5C 68.7524,189.598 68.0857,188.598 69.5,186.5 Z"/></g>
<g><path style="opacity:1" fill="#3d403f" d="M 146.5,192.5 C 144.727,191.686 144.227,190.352 145,188.5C 146.388,187.446 147.888,187.28 149.5,188C 148.552,188.483 147.552,188.649 146.5,188.5C 146.5,189.833 146.5,191.167 146.5,192.5 Z"/></g>
<g><path style="opacity:1" fill="#3c3d3d" d="M 74.5,188.5 C 78.9028,187.893 80.2361,189.56 78.5,193.5C 73.7329,194.899 72.3996,193.232 74.5,188.5 Z"/></g>
<g><path style="opacity:1" fill="#dddede" d="M 75.5,189.5 C 76.5862,189.62 77.2528,190.287 77.5,191.5C 76.6964,193.957 75.6964,193.957 74.5,191.5C 74.8627,190.817 75.1961,190.15 75.5,189.5 Z"/></g>
<g><path style="opacity:1" fill="#232423" d="M 136.5,188.5 C 137.675,188.281 138.675,188.614 139.5,189.5C 138.167,190.167 136.833,190.833 135.5,191.5C 137.851,192.012 139.851,193.012 141.5,194.5C 140.175,197.329 138.175,197.996 135.5,196.5C 136.274,195.289 137.107,195.289 138,196.5C 138.692,195.975 139.192,195.308 139.5,194.5C 137.955,193.548 136.288,193.215 134.5,193.5C 134.5,192.5 134.5,191.5 134.5,190.5C 134.5,190.167 134.5,189.833 134.5,189.5C 135.492,189.672 136.158,189.338 136.5,188.5 Z"/></g>
<g><path style="opacity:0.016" fill="#daf1e9" d="M 173.5,191.5 C 173.897,190.475 174.563,190.308 175.5,191C 174.906,191.464 174.239,191.631 173.5,191.5 Z"/></g>
<g><path style="opacity:1" fill="#222120" d="M 141.5,189.5 C 143.404,191.044 144.238,193.044 144,195.5C 142.681,193.713 141.848,191.713 141.5,189.5 Z"/></g>
<g><path style="opacity:1" fill="#333231" d="M 146.5,192.5 C 148.017,192.489 149.184,191.823 150,190.5C 150.612,192.237 149.946,193.237 148,193.5C 147.235,193.43 146.735,193.097 146.5,192.5 Z"/></g>
<g><path style="opacity:1" fill="#454444" d="M 80.5,190.5 C 83.1985,190.466 85.6985,191.133 88,192.5C 88.8201,194.728 88.4868,196.728 87,198.5C 86.9145,192.373 85.7479,192.04 83.5,197.5C 84.1323,190.333 82.9656,190 80,196.5C 79.8195,194.512 79.9862,192.512 80.5,190.5 Z"/></g>
<g><path style="opacity:0.016" fill="#dce9e4" d="M 52.5,194.5 C 53.8333,195.167 53.8333,195.167 52.5,194.5 Z"/></g>
<g><path style="opacity:1" fill="#2e2e2e" d="M 127.5,191.5 C 127.876,194.627 127.876,197.627 127.5,200.5C 126.832,198.031 126.165,195.698 125.5,193.5C 125.5,192.167 126.167,191.5 127.5,191.5 Z"/></g>
<g><path style="opacity:1" fill="#393838" d="M 128.5,191.5 C 130.625,193.861 131.291,196.528 130.5,199.5C 129.205,196.988 128.539,194.321 128.5,191.5 Z"/></g>
<g><path style="opacity:1" fill="#393838" d="M 94.5,191.5 C 95.3764,191.369 96.0431,191.702 96.5,192.5C 95.4227,194.912 94.256,197.246 93,199.5C 92.1093,196.502 92.6093,193.836 94.5,191.5 Z"/></g>
<g><path style="opacity:1" fill="#191919" d="M 101.5,196.5 C 102.833,195.167 104.167,195.167 105.5,196.5C 105.5,197.5 105.5,198.5 105.5,199.5C 105.38,200.586 104.713,201.253 103.5,201.5C 102.584,201.457 101.917,201.124 101.5,200.5C 102.5,200.5 103.5,200.5 104.5,200.5C 104.5,199.167 104.5,197.833 104.5,196.5C 103.5,196.5 102.5,196.5 101.5,196.5 Z"/></g>
<g><path style="opacity:1" fill="#171717" d="M 109.5,195.5 C 110.609,195.557 111.609,195.89 112.5,196.5C 111.852,198.086 111.352,199.753 111,201.5C 110.51,200.207 110.343,198.873 110.5,197.5C 110.167,196.833 109.833,196.167 109.5,195.5 Z"/></g>
<g><path style="opacity:1" fill="#1a1a1a" d="M 96.5,194.5 C 97.552,194.351 98.552,194.517 99.5,195C 97.9963,196.491 97.1629,198.324 97,200.5C 96.5045,198.527 96.3379,196.527 96.5,194.5 Z"/></g>
<g><path style="opacity:1" fill="#acacac" d="M 101.5,196.5 C 102.5,196.5 103.5,196.5 104.5,196.5C 104.5,197.833 104.5,199.167 104.5,200.5C 103.5,200.5 102.5,200.5 101.5,200.5C 100.167,199.167 100.167,197.833 101.5,196.5 Z"/></g>
<g><path style="opacity:1" fill="#2c2c2c" d="M 112.5,196.5 C 113.189,195.226 114.023,195.226 115,196.5C 115.667,198.167 115.667,199.833 115,201.5C 114.243,199.685 113.41,198.019 112.5,196.5 Z"/></g>
<g><path style="opacity:0.051" fill="#d9f4ea" d="M 62.5,198.5 C 61.8333,199.167 61.8333,199.167 62.5,198.5 Z"/></g>
<g><path style="opacity:0.475" fill="#9cada7" d="M 62.5,198.5 C 62.5,198.167 62.5,197.833 62.5,197.5C 70.4492,201.036 78.4492,204.37 86.5,207.5C 78.0592,205.686 70.0592,202.686 62.5,198.5 Z"/></g>
<g><path style="opacity:1" fill="#767676" d="M 109.5,195.5 C 109.833,196.167 110.167,196.833 110.5,197.5C 109.001,198.678 108.001,200.345 107.5,202.5C 106.824,201.398 106.158,200.398 105.5,199.5C 105.5,198.5 105.5,197.5 105.5,196.5C 106.708,195.766 108.041,195.433 109.5,195.5 Z"/></g>
<g><path style="opacity:1" fill="#272727" d="M 123.5,194.5 C 124.167,194.5 124.5,194.833 124.5,195.5C 124.286,197.144 124.62,198.644 125.5,200C 124.135,199.857 122.802,199.357 121.5,198.5C 122.091,197.849 122.757,197.182 123.5,196.5C 122.397,196.002 121.397,195.669 120.5,195.5C 121.325,194.614 122.325,194.281 123.5,194.5 Z"/></g>
<g><path style="opacity:1" fill="#232323" d="M 121.5,198.5 C 122.087,199.767 122.087,200.767 121.5,201.5C 120.224,200.386 120.224,199.386 121.5,198.5 Z"/></g>
<g><path style="opacity:0.376" fill="#a2b6ab" d="M 159.5,197.5 C 149.271,204.303 137.937,208.469 125.5,210C 112.571,211.922 99.9039,211.422 87.5,208.5C 88.0968,207.861 88.9302,207.528 90,207.5C 114.378,212.353 137.544,209.02 159.5,197.5 Z"/></g>
</svg>
